<?xml version="1.0" standalone="no"?>
<!DOCTYPE svg PUBLIC "-//W3C//DTD SVG 20010904//EN"
 "http://www.w3.org/TR/2001/REC-SVG-20010904/DTD/svg10.dtd">
<svg version="1.0" xmlns="http://www.w3.org/2000/svg"
 width="1080.000000pt" height="1080.000000pt" viewBox="0 0 1080.000000 1080.000000"
 preserveAspectRatio="xMidYMid meet">
<metadata>
Created by potrace 1.14, written by Peter Selinger 2001-2017
</metadata>
<g transform="translate(0.000000,1080.000000) scale(0.100000,-0.100000)"
fill="#000000" stroke="none">
<path d="M5165 8440 c-430 -32 -960 -207 -1328 -439 -413 -261 -672 -498 -913
-841 -146 -206 -225 -354 -346 -650 -67 -163 -148 -482 -179 -710 -16 -111
-16 -667 0 -780 83 -601 313 -1121 699 -1578 319 -377 726 -676 1182 -867 373
-157 867 -236 1284 -207 446 32 796 125 1174 312 453 225 816 535 1121 959
136 190 319 534 377 711 8 25 19 53 24 62 6 10 10 25 10 33 0 8 4 23 9 33 5 9
15 37 21 62 7 25 16 56 20 70 24 79 51 196 81 355 51 273 39 710 -27 1006 -9
41 -18 88 -21 104 -2 17 -8 39 -13 50 -5 11 -11 32 -14 48 -3 15 -9 39 -12 55
-3 15 -9 36 -14 47 -4 11 -14 40 -21 65 -80 275 -289 662 -500 929 -200 253
-484 506 -766 683 -226 142 -517 278 -748 349 -22 6 -49 15 -60 20 -11 4 -33
10 -50 14 -16 3 -47 10 -67 15 -145 37 -177 44 -338 69 -146 23 -427 33 -585
21z m406 -25 c515 -47 985 -205 1414 -476 560 -354 946 -807 1194 -1403 139
-334 222 -763 221 -1144 -1 -198 -40 -541 -76 -663 -4 -15 -12 -14 -82 7 -111
35 -459 134 -469 134 -5 0 -19 -41 -31 -90 -131 -536 -583 -1129 -1096 -1440
-402 -242 -932 -373 -1381 -342 -376 27 -654 102 -988 267 -452 224 -860 642
-1092 1120 -116 238 -194 489 -231 740 -25 166 -25 508 -1 660 54 344 178 683
353 961 136 216 413 518 620 676 393 299 815 462 1322 509 l132 13 0 249 c0
225 2 249 16 243 9 -3 88 -13 175 -21z"/>
<path d="M5160 7894 c-565 -72 -1042 -302 -1449 -698 -253 -247 -444 -526
-574 -841 -84 -204 -149 -473 -168 -700 -36 -428 41 -841 230 -1240 190 -400
542 -797 908 -1024 304 -189 656 -309 1022 -352 155 -17 514 -7 664 20 680
121 1217 473 1608 1054 148 220 252 439 308 652 12 44 26 88 32 98 7 12 6 19
-3 22 -13 5 -183 54 -586 171 -122 35 -291 85 -375 110 -183 54 -747 210 -981
270 -93 24 -170 45 -172 46 -1 2 -12 30 -23 62 -37 105 -104 179 -187 206
l-34 12 0 524 0 525 78 -6 c149 -13 338 -44 422 -70 89 -28 276 -109 297 -129
9 -8 0 -29 -39 -91 -65 -103 -221 -322 -287 -404 -50 -62 -60 -81 -43 -81 18
0 133 122 371 392 l103 118 95 -88 c52 -48 132 -137 178 -197 79 -104 175
-257 175 -280 0 -5 -57 -34 -128 -64 -113 -48 -174 -81 -147 -81 6 0 71 25
145 55 74 30 137 51 141 47 3 -4 16 -36 28 -71 22 -68 19 -81 -22 -81 -28 0
-318 -65 -542 -121 -282 -70 -279 -69 -268 -80 10 -10 37 -4 253 47 131 32
579 124 601 124 20 0 33 -42 59 -194 19 -110 27 -246 15 -258 -3 -3 -72 7
-153 22 -219 41 -228 42 -220 35 10 -10 151 -41 370 -80 108 -19 271 -51 363
-70 191 -40 175 -38 175 -26 0 11 -81 30 -310 72 -96 18 -178 35 -182 38 -3 3
-9 47 -12 96 -5 97 -30 252 -52 324 -9 32 -10 47 -2 52 6 4 49 14 97 24 47 9
172 37 276 61 105 25 262 60 350 80 191 41 195 42 195 56 0 17 -75 4 -386 -67
-159 -37 -349 -79 -422 -95 l-133 -27 -13 26 c-22 43 -41 130 -30 140 5 5 65
29 134 54 155 57 900 344 919 355 8 5 17 14 19 22 7 20 -27 9 -338 -115 -157
-62 -350 -139 -430 -170 -80 -31 -185 -72 -233 -92 -49 -19 -90 -33 -92 -31
-1 1 -15 28 -30 58 -66 133 -225 330 -373 464 -47 42 -52 50 -40 66 7 10 105
139 218 286 392 514 388 507 355 544 -24 27 -50 33 -75 20 -19 -10 -228 -285
-472 -620 -42 -58 -90 -121 -106 -139 l-29 -35 -114 51 c-184 82 -348 124
-534 138 -44 3 -101 8 -127 11 l-48 6 0 539 0 539 -57 -1 c-32 -1 -105 -7
-163 -15z m-489 -1124 c34 -44 66 -80 70 -80 4 0 20 5 36 10 26 9 26 9 9 -5
-10 -8 -24 -16 -30 -18 -6 -2 1 -21 17 -46 51 -78 20 -54 -42 31 -33 46 -73
101 -89 123 -35 48 -45 65 -38 65 3 0 33 -36 67 -80z m-473 29 c4 -31 -19 -44
-49 -29 -22 12 -24 31 -7 48 21 21 53 10 56 -19z m502 -142 c0 -6 -104 -75
-132 -88 -30 -13 -36 -33 -15 -46 6 -4 23 -22 37 -38 19 -23 16 -22 -16 8 -22
20 -46 37 -53 37 -7 0 -31 -14 -53 -31 -21 -17 -41 -29 -43 -27 -3 2 15 20 40
38 l45 33 -46 54 c-56 65 -46 69 17 7 l46 -45 59 35 c32 19 68 41 79 50 19 14
35 20 35 13z m-840 -655 c435 -148 528 -182 534 -197 3 -8 2 -16 -2 -19 -9 -5
-873 282 -886 294 -5 5 -6 15 -3 24 7 18 -21 26 357 -102z m988 -646 c4 -30
-10 -46 -40 -46 -17 0 -48 25 -48 40 0 19 34 41 59 38 20 -2 27 -9 29 -32z
m-1300 -293 c-16 -2 -40 -2 -55 0 -16 2 -3 4 27 4 30 0 43 -2 28 -4z m120 -10
c-15 -2 -42 -2 -60 0 -18 2 -6 4 27 4 33 0 48 -2 33 -4z m2952 -755 c0 -20
-16 -25 -23 -5 -3 8 -13 3 -31 -15 -14 -15 -33 -31 -42 -36 -13 -8 -14 -13 -4
-31 18 -34 5 -37 -27 -5 -26 27 -27 29 -8 32 28 5 95 72 95 96 0 18 1 19 20 1
11 -10 20 -26 20 -37z m-220 32 c0 -5 -4 -10 -10 -10 -5 0 -10 5 -10 10 0 6 5
10 10 10 6 0 10 -4 10 -10z m-1999 -280 c28 -15 51 -65 43 -95 -9 -37 -50 -65
-95 -65 -29 0 -45 7 -68 31 -39 39 -40 72 -2 110 31 31 83 39 122 19z m1008
-377 c-1 -203 -5 -318 -9 -288 -16 99 -10 625 6 625 2 0 3 -152 3 -337z"/>
<path d="M6030 7608 c-43 -16 -54 -62 -22 -91 26 -24 55 -21 82 8 20 21 22 30
14 52 -11 31 -40 44 -74 31z"/>
<path d="M8045 5569 c-44 -4 -235 -24 -425 -44 -190 -19 -417 -42 -505 -50
-88 -9 -169 -17 -180 -20 -54 -11 258 9 465 30 129 13 336 33 460 45 267 25
290 28 290 40 0 6 -6 9 -12 9 -7 -1 -49 -5 -93 -10z"/>
</g>
</svg>
