<?xml version="1.0" standalone="no"?>
<!DOCTYPE svg PUBLIC "-//W3C//DTD SVG 20010904//EN"
 "http://www.w3.org/TR/2001/REC-SVG-20010904/DTD/svg10.dtd">
<svg version="1.0" xmlns="http://www.w3.org/2000/svg"
 width="736.000000pt" height="736.000000pt" viewBox="0 0 736.000000 736.000000"
 preserveAspectRatio="xMidYMid meet">
<metadata>
Created by potrace 1.14, written by Peter Selinger 2001-2017
</metadata>
<g transform="translate(0.000000,736.000000) scale(0.100000,-0.100000)"
fill="#000000" stroke="none">
<path d="M0 3680 l0 -3680 1595 0 c1161 0 1595 3 1595 11 0 6 -38 129 -85 273
-93 287 -175 559 -172 563 3 2 128 -145 332 -390 28 -33 70 -76 95 -96 l45
-35 -31 34 c-16 19 -48 58 -69 85 -22 28 -105 127 -185 220 -178 208 -184 217
-227 318 -19 45 -42 91 -52 102 -10 11 -37 56 -60 101 -27 52 -51 85 -66 92
-14 7 -26 16 -26 22 -1 5 -3 15 -4 20 -1 6 -3 28 -4 50 -1 45 3 40 -139 160
l-102 85 0 54 c0 45 6 63 33 103 17 26 46 54 64 63 17 8 34 21 37 28 5 9 7 9
12 -1 3 -6 10 -10 15 -6 12 7 11 51 -1 74 -6 11 -15 54 -20 95 -11 89 -4 107
51 129 22 9 39 24 42 37 3 12 -5 63 -19 113 -13 50 -24 101 -24 114 0 12 -5
22 -11 22 -14 0 -5 -99 16 -168 21 -68 19 -76 -20 -91 -19 -7 -40 -21 -45 -32
-14 -25 -27 -24 -35 4 -4 12 -22 51 -40 87 -18 36 -36 81 -40 100 -14 67 -153
323 -373 685 -60 99 -117 194 -126 212 l-16 32 38 -6 c20 -3 56 -16 79 -29 23
-13 45 -24 48 -24 4 0 4 15 1 34 -4 19 -2 55 5 79 9 37 16 46 37 50 37 8 94
48 109 76 6 14 19 29 28 34 19 10 105 139 124 185 17 40 25 40 41 2 7 -17 15
-29 17 -26 3 3 6 48 7 100 1 89 3 97 27 122 l26 26 6 -204 c6 -221 20 -323 67
-486 63 -215 158 -352 345 -496 68 -53 208 -146 220 -146 2 0 36 -15 77 -34
40 -18 81 -36 92 -40 11 -4 16 -12 12 -22 -10 -25 17 -11 31 17 21 40 16 94
-13 136 -14 21 -50 86 -79 144 -30 59 -78 146 -107 195 -59 98 -101 188 -143
307 -15 43 -29 76 -31 74 -9 -9 79 -244 126 -338 28 -54 50 -102 50 -106 0
-11 -114 160 -158 237 -20 36 -74 146 -120 245 -46 99 -88 184 -93 190 -12 12
17 -87 43 -145 54 -122 130 -330 168 -460 23 -80 53 -180 66 -223 13 -43 24
-80 24 -82 0 -8 -152 75 -188 102 -96 72 -183 175 -236 280 -95 190 -152 507
-127 717 6 54 14 103 17 108 3 5 16 2 30 -6 24 -16 54 -21 54 -9 0 3 -7 14
-15 23 -9 10 -25 44 -36 76 -19 54 -20 66 -9 134 17 107 27 116 35 34 10 -101
24 -178 40 -221 15 -37 15 -37 10 42 -13 215 -16 376 -8 438 6 42 6 70 0 74
-5 3 -32 7 -60 9 -81 5 -184 42 -211 75 -14 16 -32 55 -41 86 -8 32 -32 109
-51 171 l-35 113 20 42 c11 23 23 54 27 70 3 15 10 30 15 33 5 3 32 -9 60 -26
28 -17 52 -30 54 -28 5 7 25 72 25 83 0 7 -18 20 -40 30 -44 20 -62 36 -31 28
16 -4 20 2 26 37 4 23 5 43 3 44 -13 12 -130 66 -143 66 -9 0 -19 -8 -22 -17
-6 -15 -7 -15 -14 3 -14 34 -10 104 5 104 11 0 104 37 114 45 2 2 -4 14 -12
28 -16 24 -12 62 5 51 5 -3 7 -9 4 -14 -3 -4 1 -10 9 -13 8 -3 15 -29 19 -67
3 -34 10 -67 16 -73 7 -7 9 20 4 90 l-6 101 42 13 c42 12 42 13 36 48 -4 20
-9 38 -11 40 -5 6 -95 -26 -274 -95 -93 -36 -136 -58 -139 -70 -2 -12 1 -15
14 -10 9 3 29 8 43 11 15 3 7 -2 -18 -12 l-45 -17 33 -8 c34 -9 40 -30 22 -73
-7 -16 -9 -13 -9 18 -1 30 -5 37 -21 37 -29 0 -54 53 -38 80 7 10 22 19 33 18
30 -3 185 62 185 77 0 6 27 38 60 69 33 32 60 62 60 67 0 18 -20 9 -62 -28
l-43 -38 32 40 c39 50 68 76 116 103 36 21 57 20 85 -3 2 -2 -12 -24 -32 -49
-19 -25 -43 -60 -53 -76 -12 -22 -36 -37 -85 -57 -38 -14 -66 -28 -64 -30 2
-2 39 10 82 27 43 18 86 32 95 33 10 1 15 7 12 14 -5 12 71 93 86 93 11 0 63
-100 58 -113 -2 -7 -11 4 -20 24 -18 44 -44 66 -33 28 24 -80 26 -99 11 -142
-73 -215 -15 -627 109 -773 28 -35 32 -45 30 -93 -2 -50 -4 -54 -41 -77 -24
-15 -55 -24 -83 -24 -41 -1 -43 -2 -20 -11 24 -10 98 -7 131 6 13 5 19 -7 33
-59 26 -107 81 -216 107 -216 4 0 -2 35 -13 78 -34 132 -13 230 68 319 l54 58
0 -60 c0 -33 8 -89 16 -125 10 -38 17 -116 18 -185 2 -105 6 -129 30 -190 43
-109 95 -202 143 -255 50 -55 210 -143 327 -179 113 -35 302 -64 384 -59 l72
5 1 -36 c2 -51 12 -94 24 -98 6 -2 9 16 7 44 -4 71 20 102 113 146 l76 37 39
-20 c43 -22 126 -26 195 -10 22 5 41 7 43 5 4 -3 -7 -58 -25 -135 -3 -14 14
13 38 58 25 50 56 94 76 109 19 14 35 24 37 22 4 -5 24 -87 41 -165 19 -89 70
-203 108 -245 107 -116 394 -259 519 -259 16 0 28 -4 28 -9 0 -22 -301 -281
-327 -281 -6 0 -15 9 -18 21 -4 11 -18 24 -32 30 -33 12 -293 12 -293 -1 0 -6
31 -10 73 -10 128 0 228 -12 234 -27 9 -23 -19 -64 -62 -92 -88 -57 -145 -103
-139 -112 3 -6 -24 -40 -60 -76 -131 -129 -173 -252 -162 -479 3 -67 10 -153
16 -192 11 -67 10 -73 -25 -173 -47 -135 -94 -318 -102 -396 -4 -45 -9 -60
-19 -56 -25 9 -28 -51 -11 -221 17 -162 19 -172 53 -227 19 -33 33 -63 30 -68
-4 -5 0 -11 8 -13 21 -5 126 -164 126 -192 0 -13 6 -27 13 -29 9 -4 8 -8 -3
-16 -21 -15 -30 -14 -30 4 0 12 -9 13 -45 8 -48 -6 -52 -2 -35 41 5 15 6 28 0
31 -5 3 -7 12 -3 20 3 8 0 15 -7 15 -7 0 -6 5 3 15 21 21 10 57 -14 50 -13 -5
-19 -1 -19 10 0 9 -7 32 -16 51 -14 28 -19 32 -35 23 -10 -5 -19 -20 -19 -32
0 -17 -2 -19 -9 -8 -7 10 -14 3 -29 -30 l-20 -44 -2 95 c-1 100 -11 148 -23
117 -3 -9 -13 -17 -22 -17 -18 0 -20 16 -3 23 10 3 10 7 1 17 -16 17 -32 -16
-41 -83 -5 -47 -7 -49 -13 -22 -4 17 -7 46 -8 65 -1 38 -16 69 -27 57 -8 -8
-6 -189 2 -223 5 -18 15 -22 62 -27 76 -8 151 -32 182 -58 l25 -21 -35 9 c-19
4 -82 8 -140 8 -98 0 -109 -2 -171 -33 -37 -17 -90 -53 -118 -78 -55 -49 -142
-172 -162 -229 -18 -47 -29 -44 -29 9 0 119 156 305 308 365 17 8 32 16 32 20
0 27 -89 266 -101 270 -11 3 -12 1 -2 -11 7 -8 10 -17 7 -20 -4 -5 28 -130 54
-208 2 -8 -23 31 -57 87 -34 57 -67 102 -74 100 -6 -1 -11 4 -9 11 1 6 -4 12
-11 12 -21 0 -11 -66 18 -117 32 -59 32 -68 -2 -20 -33 46 -41 41 -15 -10 11
-21 27 -56 36 -78 l16 -40 -58 60 c-31 33 -73 68 -93 78 -32 16 -59 37 -151
112 -15 13 -18 13 -18 1 0 -8 -6 -17 -12 -19 -10 -4 -10 -8 0 -15 8 -5 12 -11
11 -13 -2 -2 11 -25 29 -51 41 -60 41 -70 -1 -30 -31 30 -35 31 -47 16 -13
-14 -5 -24 63 -86 42 -38 77 -75 77 -81 0 -8 -4 -7 -12 1 -17 17 -33 15 -18
-3 7 -9 9 -19 5 -23 -4 -4 -10 -1 -12 6 -3 6 -9 12 -15 12 -5 0 0 -14 12 -30
12 -17 17 -30 11 -30 -6 0 -11 5 -11 10 0 16 -22 12 -35 -7 -11 -14 -10 -20 4
-31 14 -12 14 -13 -7 -9 -20 5 -21 3 -10 -10 11 -13 11 -17 -1 -21 -9 -3 -6
-11 13 -27 l26 -23 -32 -6 c-18 -3 -71 -1 -118 4 -102 12 -150 13 -150 3 1 -5
31 -23 68 -41 37 -18 99 -51 137 -73 l70 -40 -67 4 c-105 7 -89 -26 37 -78
l56 -22 -71 -27 -72 -26 -41 42 c-23 24 -56 61 -74 83 -18 22 -32 35 -33 30 0
-19 75 -138 95 -149 11 -6 35 -23 53 -38 42 -36 63 -36 31 -1 -21 23 -22 25
-4 18 44 -17 63 -15 129 15 38 17 71 28 74 25 3 -3 -4 -19 -16 -35 -28 -37
-28 -40 3 -40 25 0 33 -14 15 -25 -5 -3 -10 -11 -10 -17 0 -7 18 -9 56 -4 l56
6 -28 -24 -28 -24 197 -1 c108 -1 197 1 197 3 0 3 -5 17 -12 31 -10 23 -16 25
-82 25 -39 1 -99 7 -133 14 -34 7 -74 11 -88 9 -15 -3 -25 -1 -25 6 0 6 5 11
11 11 5 0 7 5 4 10 -4 6 -23 7 -46 4 -47 -8 -51 7 -15 60 14 21 25 56 29 88
12 118 104 245 214 295 73 34 172 42 228 19 43 -18 105 -57 105 -67 0 -3 -24
-2 -52 2 -29 4 -71 8 -92 8 l-40 1 27 -27 c64 -68 92 -207 53 -266 -38 -56
-128 -75 -194 -39 -45 24 -100 78 -120 119 l-18 35 -26 -69 c-15 -37 -29 -82
-32 -99 -5 -31 -5 -31 37 -31 23 0 83 -3 132 -8 82 -7 95 -6 143 15 84 36 150
133 169 248 6 36 23 44 23 10 0 -28 -16 -134 -25 -168 -5 -22 -1 -28 32 -45
l38 -20 -37 -3 c-43 -4 -44 -4 -22 -38 21 -31 12 -41 -21 -26 -27 12 -34 1
-16 -27 17 -26 71 21 116 101 l42 74 -41 19 c-36 16 -38 19 -18 22 20 4 26 16
25 51 -1 6 4 12 9 12 6 0 8 7 5 15 -4 8 -2 17 4 20 5 4 7 11 3 16 -3 5 -10 7
-15 4 -5 -4 -12 1 -15 10 -4 9 -13 14 -20 11 -7 -3 -16 -1 -18 3 -9 13 84 75
95 64 10 -10 15 -157 7 -217 -5 -44 14 -41 45 6 32 50 32 82 0 86 -27 4 -28
10 -8 36 22 29 42 5 57 -64 6 -33 17 -58 22 -57 7 1 12 -48 14 -145 1 -88 7
-148 12 -148 6 0 10 6 10 13 0 8 4 7 10 -3 8 -12 11 -13 19 -1 6 9 11 10 15 2
5 -8 366 -11 1302 -11 l1294 0 0 3680 0 3680 -3680 0 -3680 0 0 -3680z m3900
2623 c40 -108 53 -176 54 -293 1 -63 -2 -134 -7 -158 l-7 -42 42 7 c132 24
223 -4 427 -129 l150 -93 -22 -23 c-57 -61 -237 -136 -375 -157 -132 -20 -202
-20 -202 0 0 33 -33 77 -78 106 -52 33 -110 38 -177 14 -21 -8 -41 -13 -42
-11 -2 1 9 26 23 55 59 124 32 231 -60 231 -24 0 -26 4 -26 43 0 84 52 234
114 332 35 54 143 175 156 175 5 0 18 -26 30 -57z m-834 -698 c-9 -49 -25
-168 -36 -263 -10 -96 -24 -180 -30 -187 -7 -8 -9 -23 -5 -34 7 -24 -13 -39
-22 -15 -3 9 -1 53 5 98 14 101 40 280 48 326 4 23 2 32 -4 25 -6 -5 -29 -93
-51 -195 -55 -243 -50 -230 -67 -198 -12 23 -10 38 17 134 16 59 46 175 65
258 19 83 47 176 62 206 l27 55 3 -60 c2 -33 -4 -100 -12 -150z m-741 -166 c4
-12 3 -25 -2 -29 -12 -13 -46 17 -40 35 9 22 35 19 42 -6z m-45 -49 c-20 -13
-33 -13 -25 0 3 6 14 10 23 10 15 0 15 -2 2 -10z m1 -167 c-12 -20 -14 -14 -5
12 4 9 9 14 11 11 3 -2 0 -13 -6 -23z m-35 -40 c-10 -10 -80 -33 -85 -28 -8 8
7 17 41 25 45 11 53 11 44 3z m-99 -29 c-3 -3 -12 -4 -19 -1 -8 3 -5 6 6 6 11
1 17 -2 13 -5z m103 -20 c-7 -19 -7 -31 1 -40 12 -15 2 -18 -19 -6 -10 7 -9
15 4 40 19 39 27 42 14 6z m29 -108 c-17 -46 -18 -60 -8 -72 10 -12 9 -13 -5
-8 -9 3 -16 11 -16 17 0 16 42 128 47 124 2 -3 -6 -30 -18 -61z m-19 14 c0
-11 -4 -20 -9 -20 -5 0 -11 9 -14 20 -3 13 0 20 9 20 8 0 14 -9 14 -20z m1250
-50 c0 -5 -4 -10 -10 -10 -5 0 -10 5 -10 10 0 6 5 10 10 10 6 0 10 -4 10 -10z
m-364 -137 c-17 -72 -46 -106 -76 -88 -16 10 -12 21 28 69 43 52 57 57 48 19z
m246 -60 c-32 -109 -43 -171 -36 -213 5 -32 2 -43 -19 -66 l-25 -27 -13 42
c-15 49 -2 166 25 241 15 39 73 106 84 96 2 -2 -6 -35 -16 -73z m275 46 c90
-29 180 -67 171 -73 -1 -1 -53 1 -114 5 -78 4 -124 13 -160 28 -34 14 -43 16
-29 5 30 -24 201 -102 262 -120 29 -8 53 -17 53 -19 0 -6 -99 5 -138 15 -30 8
-32 7 -20 -7 11 -14 10 -16 -7 -11 -11 3 -29 9 -40 13 -46 17 23 -25 75 -45
65 -26 251 -53 304 -45 35 5 47 1 108 -41 37 -26 70 -45 73 -42 11 11 -9 39
-48 68 -23 16 -35 30 -29 30 18 0 91 -57 131 -102 l33 -38 -21 -45 c-12 -25
-26 -45 -32 -45 -6 0 -38 -25 -71 -55 -87 -81 -126 -98 -224 -99 -45 -1 -80
-4 -77 -8 2 -4 29 -15 59 -24 64 -18 99 -14 178 21 l55 24 -3 -27 c-2 -20 -18
-39 -64 -72 -47 -35 -61 -51 -61 -72 -1 -23 -6 -28 -37 -34 -44 -8 -138 11
-155 32 -9 11 -14 12 -19 3 -4 -6 -7 1 -7 16 0 18 -9 35 -24 46 -21 15 -26 16
-51 3 -27 -14 -29 -14 -39 13 -6 15 -13 49 -16 76 -5 43 -8 47 -34 47 -45 0
-114 -35 -147 -76 -37 -45 -40 -60 -12 -69 22 -7 70 -61 70 -79 0 -7 -11 -18
-25 -24 -43 -20 -41 -39 9 -88 25 -25 50 -43 56 -39 5 3 10 2 10 -2 0 -5 18
-9 40 -9 22 -1 40 3 40 7 0 22 46 77 73 87 17 6 33 23 39 40 l11 29 25 -29
c34 -41 77 -60 147 -67 l60 -6 -50 -38 c-60 -45 -137 -70 -268 -88 -88 -11
-105 -11 -165 5 -145 37 -276 107 -343 183 -60 69 -139 275 -139 365 0 59 26
166 64 262 27 69 33 93 25 108 -6 11 -7 33 -3 51 6 28 10 19 25 -64 20 -112
59 -207 101 -244 23 -20 28 -33 26 -58 -3 -27 -11 -35 -46 -52 -27 -12 -41
-25 -40 -35 4 -17 42 -23 210 -35 l105 -7 13 31 c9 22 10 44 4 74 -8 39 -13
43 -54 56 -37 11 -48 21 -65 55 -16 32 -26 42 -49 44 -27 3 -28 5 -22 45 11
70 63 168 119 225 28 28 57 52 64 52 7 0 57 -14 110 -31z m425 -64 c-24 -8
-51 -11 -60 -7 -13 5 -8 8 18 13 65 12 88 8 42 -6z m-1067 -142 c-10 -53 -18
-32 -9 24 4 26 10 40 12 30 2 -11 1 -35 -3 -54z m1332 -39 c19 -5 20 -9 11
-35 -5 -16 -13 -29 -17 -29 -4 0 -22 16 -41 35 l-34 35 30 0 c16 0 39 -3 51
-6z m-929 -153 c8 -23 17 -30 43 -33 39 -4 59 -29 40 -52 -10 -12 -33 -16 -98
-16 l-84 0 27 23 c23 20 25 26 15 44 -14 28 -14 56 1 71 16 16 44 -2 56 -37z
m2085 -315 c46 -12 47 -13 29 -29 -10 -9 -21 -14 -24 -11 -4 3 -32 16 -65 30
-55 22 -56 24 -23 23 19 0 57 -6 83 -13z m-1753 -10 c0 -2 -8 -10 -17 -17 -16
-13 -17 -12 -4 4 13 16 21 21 21 13z m1177 -12 c-44 -24 -27 -25 43 -3 35 11
68 18 74 15 12 -4 8 -5 -74 -30 -31 -8 -71 -27 -90 -41 -33 -24 -33 -25 -9
-25 32 0 49 -17 49 -49 0 -17 17 -44 45 -75 42 -46 54 -66 38 -66 -3 0 -16 8
-27 18 -21 17 -21 17 -4 -3 17 -20 18 -23 18 -51 0 -8 4 -12 10 -9 5 3 18 1
29 -4 20 -11 24 1 8 27 -11 17 6 15 47 -4 31 -15 58 -57 80 -124 2 -8 5 -3 5
11 1 39 22 56 74 62 42 4 49 2 67 -22 l19 -26 -6 38 c-4 30 -2 41 13 53 17 13
11 14 -66 8 -70 -5 -93 -3 -128 12 -23 10 -42 22 -42 25 0 3 22 9 49 12 48 6
91 24 91 39 0 4 14 22 30 40 17 18 38 54 48 81 9 26 22 47 29 47 20 0 93 -31
93 -40 0 -14 -76 -60 -101 -60 -17 0 -20 -3 -10 -9 11 -7 9 -10 -7 -15 -11 -4
-23 -13 -26 -21 -3 -8 -12 -15 -20 -15 -8 0 -17 -4 -21 -9 -7 -13 57 6 119 34
57 25 150 40 139 21 -42 -69 -99 -153 -112 -163 -26 -20 -7 -15 80 22 45 19
85 32 88 30 18 -19 -69 -95 -110 -95 -11 0 -35 -11 -52 -24 -42 -32 -118 -71
-153 -80 -54 -14 -151 4 -212 40 l-57 34 39 -35 c24 -22 61 -41 98 -51 61 -17
67 -24 44 -43 -11 -10 -20 -10 -36 -1 -31 16 -44 0 -29 -34 11 -23 10 -32 -4
-56 -24 -39 -22 -43 17 -37 28 4 36 2 47 -19 16 -32 33 -26 37 13 2 24 10 34
33 42 36 12 38 38 4 47 -18 4 -25 13 -25 30 0 28 10 30 50 9 31 -16 37 -29 20
-40 -5 -3 -10 -13 -10 -22 0 -11 6 -14 21 -10 15 4 27 -1 40 -16 14 -18 18
-19 22 -7 3 8 7 22 10 31 6 19 39 30 57 19 20 -12 -4 -44 -49 -66 -44 -20 -55
-40 -18 -31 18 5 16 1 -12 -23 -42 -36 -151 -74 -183 -65 -19 6 -21 5 -10 -6
19 -21 136 -15 204 9 31 11 77 34 102 51 25 18 46 29 46 25 0 -9 117 150 138
186 13 23 13 19 8 -43 -3 -38 -12 -83 -21 -100 -8 -16 -13 -32 -11 -35 5 -4
64 74 73 96 6 13 23 17 23 4 0 -13 -91 -112 -99 -107 -5 2 -19 -7 -32 -21 -43
-47 -194 -142 -206 -130 -3 3 19 31 48 63 40 42 44 49 16 25 -21 -18 -61 -44
-90 -59 -46 -24 -63 -27 -147 -27 -130 0 -165 6 -238 42 -140 70 -202 129
-241 232 -28 74 -47 160 -35 160 3 0 19 -9 35 -21 20 -14 29 -29 29 -49 0 -16
3 -36 7 -46 5 -15 11 -12 39 21 l32 38 37 -22 c21 -12 39 -20 41 -18 2 2 -2
22 -10 44 -14 39 -13 41 11 66 31 30 25 42 -24 51 -29 4 -44 14 -62 41 -28 42
-41 41 -56 -4 -11 -33 -22 -43 -62 -55 -17 -5 -21 -3 -17 11 39 179 42 184
101 240 32 29 60 53 64 53 3 0 23 14 44 30 21 17 43 30 49 30 6 -1 -2 -8 -17
-16z m-1222 -44 c-4 -11 -2 -20 4 -20 6 0 11 5 11 11 0 5 4 8 9 4 5 -3 17 2
25 11 14 13 16 13 16 1 0 -8 -14 -20 -30 -26 -32 -11 -52 -42 -31 -49 16 -5
-5 -32 -26 -32 -9 0 -13 -6 -9 -15 3 -8 2 -15 -2 -16 -49 -6 -48 -7 -44 29 3
21 7 29 12 22 12 -19 30 -2 30 28 0 25 24 72 36 72 3 0 2 -9 -1 -20z m1971
-56 c-7 -25 -8 -26 -24 -11 -15 16 -15 18 3 31 25 18 29 14 21 -20z m-1255
-73 c-20 -36 -81 -80 -133 -96 -93 -27 -98 -21 -28 43 59 53 88 67 148 71 19
1 21 -2 13 -18z m-221 -2 c0 -6 -26 -37 -59 -68 -62 -61 -148 -111 -190 -111
l-26 1 30 16 c17 8 44 28 60 43 17 15 48 37 70 48 22 11 53 34 69 51 31 32 46
39 46 20z m-620 -19 c0 -5 -2 -10 -4 -10 -3 0 -8 5 -11 10 -3 6 -1 10 4 10 6
0 11 -4 11 -10z m1293 -156 c31 -7 34 -16 12 -34 -11 -9 -14 -22 -9 -49 l7
-35 -27 18 c-27 17 -28 17 -50 -3 -29 -27 -36 -26 -36 3 0 17 -11 31 -35 46
-19 12 -35 23 -35 26 0 2 15 10 34 18 23 9 37 24 45 47 l12 34 27 -32 c15 -18
39 -35 55 -39z m397 16 c0 -5 -15 -10 -32 -9 -31 1 -32 1 -8 9 35 11 40 11 40
0z m-900 -2990 c0 -5 -4 -10 -10 -10 -5 0 -10 5 -10 10 0 6 5 10 10 10 6 0 10
-4 10 -10z m60 -90 c0 -5 -4 -10 -10 -10 -5 0 -10 5 -10 10 0 6 5 10 10 10 6
0 10 -4 10 -10z m-725 -140 c3 -5 1 -10 -4 -10 -6 0 -11 5 -11 10 0 6 2 10 4
10 3 0 8 -4 11 -10z m795 -160 c0 -5 -2 -10 -4 -10 -3 0 -8 5 -11 10 -3 6 -1
10 4 10 6 0 11 -4 11 -10z"/>
<path d="M3790 6140 c-25 -28 -46 -56 -48 -63 -2 -6 -15 -22 -30 -34 -15 -13
-21 -23 -14 -23 23 0 13 -48 -15 -69 l-28 -21 27 6 c21 5 27 1 33 -16 4 -12
20 -44 37 -70 l30 -49 38 44 c30 34 40 56 45 97 5 40 15 61 38 86 l32 33 -27
-6 c-25 -6 -27 -4 -39 50 -20 90 -27 93 -79 35z"/>
<path d="M4185 5727 c-24 -18 -40 -21 -86 -19 -46 3 -70 -2 -118 -23 -34 -15
-61 -30 -61 -32 0 -3 9 -16 20 -30 11 -14 20 -32 20 -40 0 -8 4 -12 8 -9 5 3
23 -10 41 -28 27 -27 31 -38 25 -61 l-7 -29 21 20 c25 23 92 22 92 -2 0 -21
18 -17 25 6 4 14 15 20 36 20 16 0 29 -4 29 -10 0 -5 4 -10 10 -10 5 0 7 6 4
13 -3 9 17 23 58 40 l62 27 -40 41 c-21 22 -60 53 -87 68 l-47 28 21 26 c25
33 14 34 -26 4z"/>
<path d="M3465 4710 c-7 -12 21 -53 64 -94 37 -35 38 -48 9 -70 -23 -17 -22
-17 16 -12 35 5 42 1 90 -44 40 -38 55 -60 65 -98 10 -42 15 -49 32 -45 13 4
16 8 10 13 -8 4 -5 12 7 24 17 14 24 15 48 4 16 -6 37 -21 46 -32 13 -16 18
-17 18 -6 0 21 118 15 143 -8 24 -21 31 -9 14 25 -24 45 -48 61 -118 77 -36 9
-84 22 -106 30 -28 10 -44 11 -51 4 -7 -7 -13 1 -18 26 -10 56 -135 182 -189
191 -22 4 -48 12 -57 16 -10 6 -19 5 -23 -1z"/>
<path d="M3810 4581 c0 -24 139 -92 185 -90 14 0 16 2 5 6 -8 3 -54 25 -102
49 -49 24 -88 40 -88 35z"/>
<path d="M4035 4470 c10 -11 23 -20 28 -20 6 0 2 9 -8 20 -10 11 -23 20 -28
20 -6 0 -2 -9 8 -20z"/>
<path d="M3780 4340 c8 -5 24 -9 35 -9 l20 0 -20 9 c-11 5 -27 9 -35 9 -13 1
-13 0 0 -9z"/>
<path d="M5073 3777 c0 -7 11 -13 24 -13 27 -2 27 -1 -3 14 -15 8 -21 8 -21
-1z"/>
<path d="M4800 3761 c0 -12 -9 -21 -25 -25 l-26 -7 28 -28 c19 -20 32 -26 40
-19 8 6 19 5 33 -2 19 -10 20 -9 15 13 -4 15 -2 28 5 32 8 5 2 12 -19 21 -17
7 -31 18 -31 24 0 5 -4 10 -10 10 -5 0 -10 -9 -10 -19z m53 -47 c-6 -17 -45
-25 -60 -12 -17 14 -16 28 2 28 8 0 15 7 15 15 0 14 3 13 24 -2 13 -10 21 -23
19 -29z"/>
<path d="M2884 4090 c-11 -4 -33 -22 -47 -40 -23 -27 -27 -40 -26 -93 l2 -62
6 57 c8 70 17 81 24 28 3 -22 19 -69 36 -105 27 -58 33 -65 59 -65 37 0 92 18
115 38 15 14 17 13 17 -1 0 -27 228 -453 237 -443 3 2 -10 31 -29 63 -19 32
-75 151 -125 264 -84 188 -146 305 -187 352 -17 18 -48 21 -82 7z"/>
<path d="M3230 3785 l-23 -25 34 -85 c23 -59 39 -85 50 -85 20 0 111 41 134
60 8 7 15 28 15 47 0 33 -3 35 -84 74 -46 21 -88 39 -93 39 -5 0 -20 -11 -33
-25z m122 -29 c73 -33 75 -35 70 -66 -4 -28 -12 -36 -66 -60 -33 -16 -64 -25
-68 -22 -12 13 -57 122 -50 122 4 0 19 -7 32 -16 14 -9 9 -2 -10 14 -29 26
-32 32 -21 46 19 22 28 21 113 -18z"/>
<path d="M3359 3663 c-13 -16 -12 -17 4 -4 16 13 21 21 13 21 -2 0 -10 -8 -17
-17z"/>
<path d="M2874 3655 c24 -73 111 -284 114 -277 3 9 -105 283 -115 292 -3 3 -3
-4 1 -15z"/>
<path d="M4368 3325 c-4 -11 -10 -42 -14 -70 -12 -84 -32 -128 -82 -174 -37
-35 -43 -46 -30 -49 22 -4 85 43 103 77 16 31 39 177 33 212 -3 22 -4 22 -10
4z"/>
<path d="M3393 3274 c3 -20 18 -51 32 -70 24 -31 105 -93 163 -123 37 -19 25
-6 -20 24 -49 31 -119 115 -142 168 -20 49 -41 49 -33 1z"/>
<path d="M3360 3280 c0 -12 38 -90 45 -90 7 0 -26 90 -36 96 -5 3 -9 0 -9 -6z"/>
<path d="M4055 3100 c21 -24 26 -25 19 -6 -3 8 -13 17 -22 21 -13 5 -13 2 3
-15z"/>
<path d="M3620 3062 c0 -4 20 -32 46 -62 25 -30 75 -97 111 -147 36 -51 77
-100 90 -109 39 -25 123 -30 164 -9 19 10 41 23 49 30 30 25 147 65 193 65 56
0 105 16 90 31 -9 9 -27 10 -98 8 -90 -4 -271 44 -425 111 -131 58 -220 91
-220 82z m255 -241 c10 -17 -12 -21 -25 -6 -10 12 -10 15 3 15 9 0 18 -4 22
-9z"/>
<path d="M3505 2930 c-3 -5 -1 -10 4 -10 6 0 11 5 11 10 0 6 -2 10 -4 10 -3 0
-8 -4 -11 -10z"/>
<path d="M3569 2922 c5 -10 18 -25 27 -33 11 -9 9 -2 -6 19 -26 35 -36 42 -21
14z"/>
<path d="M3427 2894 l-27 -15 73 -59 c41 -32 79 -66 87 -74 15 -19 40 -21 40
-3 0 18 -8 26 -83 90 -37 32 -65 63 -61 68 7 12 4 11 -29 -7z"/>
<path d="M3520 2906 c0 -11 40 -86 45 -86 3 0 -4 19 -16 43 -23 45 -29 54 -29
43z"/>
<path d="M4426 2855 c-43 -18 -86 -41 -95 -49 -10 -9 -39 -57 -65 -108 -41
-81 -44 -89 -18 -60 16 18 42 59 58 91 30 63 39 69 162 121 28 12 52 26 52 31
0 14 -9 11 -94 -26z"/>
<path d="M3620 2851 c0 -6 4 -13 10 -16 6 -3 7 1 4 9 -7 18 -14 21 -14 7z"/>
<path d="M3650 2794 c0 -9 38 -62 84 -118 23 -27 48 -66 57 -86 9 -20 36 -52
59 -71 80 -64 97 -84 104 -124 10 -58 48 -178 59 -190 6 -7 7 -1 3 15 -19 74
-20 84 -3 77 10 -4 17 -1 17 5 0 7 11 23 24 37 26 28 90 136 102 173 6 22 6
21 -17 -3 -13 -14 -54 -36 -90 -48 l-67 -22 -24 23 c-14 13 -51 45 -82 71 -31
27 -93 98 -137 158 -78 104 -89 117 -89 103z"/>
<path d="M2707 2582 c-36 -37 -34 -48 2 -21 27 20 35 21 73 11 24 -6 57 -14
73 -17 17 -3 53 -12 82 -20 l52 -15 -35 -51 c-19 -28 -34 -57 -34 -64 0 -7 -7
-19 -16 -26 -12 -10 -15 -24 -10 -59 16 -117 14 -113 69 -138 29 -12 65 -22
81 -22 l28 0 -6 53 c-9 73 14 146 59 186 43 37 54 39 48 8 -3 -13 2 -29 11
-36 14 -11 13 -16 -5 -41 -17 -22 -19 -32 -10 -48 8 -16 6 -23 -10 -38 -15
-14 -19 -26 -15 -48 4 -20 1 -35 -11 -48 -13 -15 -14 -23 -5 -43 6 -14 18 -25
26 -25 9 0 20 -10 27 -21 9 -18 18 -20 49 -16 32 4 39 2 43 -14 3 -11 17 -22
35 -25 23 -5 30 -11 30 -32 0 -14 7 -31 16 -38 14 -10 15 -16 5 -37 -8 -18 -8
-30 0 -46 9 -16 8 -26 -5 -47 -14 -21 -15 -30 -6 -45 10 -16 9 -22 -8 -39 -22
-22 -25 -41 -9 -57 8 -8 5 -17 -11 -33 -15 -15 -20 -29 -16 -46 4 -16 -1 -34
-15 -54 -19 -25 -20 -32 -9 -45 11 -13 10 -18 -9 -31 -16 -11 -21 -24 -19 -44
1 -17 -5 -37 -17 -50 -11 -12 -18 -33 -17 -49 2 -25 0 -27 -28 -23 -16 2 -27
8 -24 13 10 17 -8 50 -32 59 -13 5 -24 18 -24 28 0 24 -19 42 -46 42 -17 0
-20 5 -17 24 3 15 -2 30 -17 44 -14 13 -18 22 -11 27 15 9 14 48 -1 63 -10 10
-10 17 0 32 15 24 15 53 1 67 -8 8 -8 17 1 32 12 23 5 61 -11 61 -6 0 -7 14
-3 35 5 27 2 41 -11 55 -10 11 -14 26 -11 38 10 29 -2 49 -35 61 -16 5 -29 17
-29 25 0 17 -33 30 -58 22 -13 -5 -18 0 -20 17 -2 30 32 62 79 75 32 9 41 6
79 -19 80 -54 97 -27 24 39 -28 25 -71 50 -111 64 -45 16 -68 30 -73 45 -5 11
-13 24 -19 27 -13 9 -81 -25 -81 -40 0 -7 -18 -33 -39 -58 -21 -25 -47 -66
-57 -93 -9 -26 -22 -53 -27 -60 -5 -7 -4 -42 4 -88 11 -69 15 -77 42 -92 38
-19 139 -54 144 -49 2 2 0 28 -5 57 -13 87 21 189 47 140 9 -15 21 -21 46 -21
26 0 33 -4 29 -14 -3 -8 0 -24 6 -36 9 -17 14 -19 26 -9 11 9 14 8 14 -4 0 -9
-4 -19 -10 -22 -15 -9 -12 -51 3 -64 8 -6 17 -8 20 -4 4 3 7 1 7 -5 0 -6 -4
-14 -10 -17 -14 -9 -13 -58 2 -73 9 -9 9 -15 0 -24 -15 -15 -15 -43 1 -69 10
-17 10 -23 0 -26 -19 -7 -16 -60 3 -71 13 -7 14 -14 6 -27 -12 -23 4 -65 25
-65 8 0 19 -14 25 -30 7 -22 18 -33 39 -37 16 -3 26 -9 23 -14 -10 -17 8 -50
31 -59 13 -5 25 -19 27 -32 2 -18 10 -24 36 -26 21 -2 33 1 34 10 0 7 2 18 2
23 1 6 12 21 25 34 16 16 21 30 17 47 -4 16 0 30 15 45 14 14 19 28 15 45 -4
16 0 30 14 44 16 16 20 28 15 51 -4 18 -3 29 5 29 17 0 29 42 18 63 -7 13 -5
22 5 30 20 17 26 39 15 60 -7 14 -5 24 8 38 12 13 15 28 10 49 -4 20 0 39 9
54 15 23 11 56 -7 56 -5 0 -6 15 -3 33 6 36 0 49 -33 66 -12 7 -20 16 -18 20
9 13 -31 43 -52 39 -11 -2 -29 6 -41 16 -17 16 -25 17 -45 8 -23 -10 -25 -9
-24 18 1 16 -4 36 -11 44 -10 12 -8 17 10 26 17 10 20 18 16 46 -4 25 -2 37 8
40 21 8 28 40 15 65 -9 15 -9 24 -1 32 6 6 11 23 11 37 0 26 1 26 53 19 28 -4
66 -8 82 -8 l30 0 -33 14 c-18 8 -45 24 -60 36 -52 40 -137 90 -164 96 -16 3
-28 9 -28 14 0 14 -39 20 -60 9 -11 -6 -20 -20 -20 -31 0 -15 -5 -19 -17 -15
-103 31 -199 56 -214 56 -10 0 -21 5 -24 10 -11 18 -41 10 -68 -18z m401 -24
c14 -14 16 -42 2 -33 -14 9 -32 45 -22 45 4 0 13 -5 20 -12z m-85 -118 c32
-20 45 -34 41 -45 -8 -19 -1 -20 -68 11 -49 22 -55 28 -46 45 14 25 18 24 73
-11z m197 -43 c0 -8 -7 -14 -15 -14 -8 0 -15 6 -15 14 0 7 7 13 15 13 8 0 15
-6 15 -13z m-262 -57 c17 -11 32 -22 32 -25 0 -6 -48 15 -75 32 -33 22 6 15
43 -7z m252 -35 c0 -6 -7 -12 -15 -12 -8 0 -15 6 -15 12 0 6 7 12 15 12 8 0
15 -6 15 -12z m-424 -92 c-10 -10 -19 5 -10 18 6 11 8 11 12 0 2 -7 1 -15 -2
-18z m34 7 c0 -5 -4 -10 -10 -10 -5 0 -10 5 -10 10 0 6 5 10 10 10 6 0 10 -4
10 -10z m363 -18 c-4 -10 -8 -12 -11 -4 -2 7 -8 10 -13 6 -10 -6 -13 9 -3 19
12 11 33 -5 27 -21z m-413 -56 c0 -3 -4 -8 -10 -11 -5 -3 -10 -1 -10 4 0 6 5
11 10 11 6 0 10 -2 10 -4z m-31 -49 c5 -12 8 -23 7 -24 -6 -7 -76 22 -76 32 0
40 53 34 69 -8z m431 27 c0 -8 -4 -13 -9 -10 -5 4 -12 0 -14 -6 -4 -8 -6 -7
-6 4 -1 14 6 21 27 27 1 1 2 -6 2 -15z m64 -59 c-4 -8 -12 -15 -20 -15 -8 0
-11 6 -8 15 4 8 12 15 20 15 8 0 11 -6 8 -15z m81 -38 c-20 -11 -27 -5 -19 17
5 13 9 14 21 5 12 -11 12 -14 -2 -22z m-632 -33 c63 -21 60 -36 -3 -16 -27 9
-50 19 -50 24 0 10 -1 11 53 -8z m213 -8 c1 -9 -2 -16 -8 -14 -6 2 -12 12 -14
22 -1 9 2 16 8 14 6 -2 12 -12 14 -22z m494 -24 c0 -4 -9 -8 -20 -9 -22 -2
-27 13 -7 20 14 5 27 -1 27 -11z m-420 -26 c0 -8 -7 -16 -15 -20 -15 -5 -21
14 -8 27 11 12 23 8 23 -7z m430 -61 c0 -6 -7 -12 -15 -12 -8 0 -15 6 -15 12
0 6 7 12 15 12 8 0 15 -6 15 -12z m-410 -45 c-9 -6 -19 -5 -25 1 -6 6 -5 13 5
19 9 6 19 5 25 -1 6 -6 5 -13 -5 -19z m400 -51 c0 -5 -7 -9 -15 -9 -8 0 -15 7
-15 15 0 9 6 12 15 9 8 -4 15 -10 15 -15z m-380 -30 c0 -4 -7 -9 -15 -13 -9
-3 -15 0 -15 8 0 7 7 13 15 13 8 0 15 -4 15 -8z m360 -65 c0 -8 -6 -11 -15 -8
-8 4 -15 12 -15 20 0 8 6 11 15 8 8 -4 15 -12 15 -20z m-355 -32 c-12 -12 -35
-10 -35 3 0 8 7 11 20 8 12 -3 18 -8 15 -11z m335 -58 c0 -8 -6 -11 -15 -8 -8
4 -15 9 -15 13 0 4 7 8 15 8 8 0 15 -6 15 -13z m-330 -34 c0 -5 -9 -10 -20
-10 -11 0 -20 5 -20 10 0 6 9 10 20 10 11 0 20 -4 20 -10z m300 -55 c0 -9 -6
-12 -15 -9 -8 4 -15 10 -15 15 0 5 7 9 15 9 8 0 15 -7 15 -15z m-293 -47 c-13
-8 -27 -1 -27 13 0 6 5 7 10 4 6 -3 10 0 10 7 0 10 3 9 10 -2 6 -9 5 -17 -3
-22z m267 -42 c-3 -8 -12 -12 -20 -9 -21 8 -17 23 6 23 13 0 18 -5 14 -14z
m-200 -15 c3 -5 -1 -12 -10 -15 -20 -8 -29 -1 -19 13 8 13 22 14 29 2z m170
-76 c-3 -8 -12 -11 -20 -8 -15 5 -18 16 -8 26 11 10 33 -4 28 -18z m-114 8
c-1 -18 -18 -35 -24 -24 -4 6 -4 16 -1 21 7 12 25 13 25 3z m68 -81 c2 -7 -6
-12 -17 -12 -21 0 -27 11 -14 24 9 9 26 2 31 -12z"/>
<path d="M4057 2219 c22 -39 104 -131 110 -125 6 6 -108 156 -119 156 -5 0 -1
-14 9 -31z"/>
<path d="M4210 2044 c0 -6 9 -31 19 -55 11 -24 26 -62 35 -83 22 -53 29 -40
11 20 -15 49 -64 139 -65 118z"/>
<path d="M2636 1804 c-15 -9 -36 -14 -47 -11 -14 4 -18 -1 -17 -22 0 -14 -3
-37 -7 -51 -8 -25 -8 -25 13 -7 20 18 20 18 27 -2 8 -25 25 -28 25 -3 0 28 15
44 51 52 l34 8 -33 7 c-31 7 -32 9 -16 26 21 23 9 24 -30 3z"/>
<path d="M4101 734 c9 -50 15 -61 25 -51 7 6 -14 77 -26 90 -4 5 -4 -13 1 -39z"/>
<path d="M4425 751 c-3 -5 -1 -12 5 -16 5 -3 10 1 10 9 0 18 -6 21 -15 7z"/>
<path d="M4124 419 c6 -39 4 -44 -31 -76 l-38 -34 41 4 c52 6 57 3 82 -53 l20
-45 7 33 c8 32 8 33 51 26 52 -7 55 2 14 39 -32 29 -35 44 -21 95 11 35 -6 45
-29 17 -18 -21 -33 -19 -60 10 -34 36 -44 31 -36 -16z"/>
<path d="M3540 73 c0 -16 25 -73 32 -73 12 0 10 18 -7 50 -15 29 -25 38 -25
23z"/>
<path d="M4350 60 c0 -5 5 -10 11 -10 5 0 7 5 4 10 -3 6 -8 10 -11 10 -2 0 -4
-4 -4 -10z"/>
<path d="M4290 36 c0 -22 3 -27 11 -19 8 8 8 16 0 30 -9 16 -10 14 -11 -11z"/>
</g>
</svg>
