<?xml version="1.0" standalone="no"?>
<!DOCTYPE svg PUBLIC "-//W3C//DTD SVG 20010904//EN"
 "http://www.w3.org/TR/2001/REC-SVG-20010904/DTD/svg10.dtd">
<svg version="1.0" xmlns="http://www.w3.org/2000/svg"
 width="339.000000pt" height="339.000000pt" viewBox="0 0 339.000000 339.000000"
 preserveAspectRatio="xMidYMid meet">
<metadata>
Created by potrace 1.14, written by Peter Selinger 2001-2017
</metadata>
<g transform="translate(0.000000,339.000000) scale(0.100000,-0.100000)"
fill="#000000" stroke="none">
<path d="M1617 3184 c-1 -1 -33 -4 -72 -8 -60 -5 -108 -12 -200 -32 -146 -30
-368 -128 -502 -220 -143 -98 -308 -257 -357 -343 -5 -8 -17 -23 -25 -33 -9
-9 -27 -38 -41 -65 -14 -26 -27 -50 -30 -53 -12 -11 -86 -188 -95 -225 -2 -11
-14 -51 -25 -90 -21 -73 -25 -90 -37 -190 -7 -58 -9 -278 -4 -340 14 -145 84
-375 152 -503 36 -67 125 -202 166 -251 57 -71 186 -192 271 -256 88 -66 330
-195 368 -195 11 0 24 -4 29 -9 6 -5 39 -16 75 -24 142 -35 191 -41 340 -41
192 -1 314 17 475 72 105 35 324 143 333 165 2 4 10 7 17 7 7 0 15 3 17 8 2 4
28 26 58 49 220 166 423 465 496 729 8 32 20 75 25 94 25 90 36 198 34 327 -1
76 -5 147 -8 158 -2 11 -8 43 -11 70 -17 130 -102 359 -180 485 -98 158 -228
302 -369 408 -80 61 -237 155 -245 148 -7 -7 -9 -6 63 -46 83 -45 161 -97 220
-144 79 -64 201 -192 237 -247 9 -14 23 -32 30 -40 15 -15 93 -151 119 -209
45 -96 95 -250 106 -325 2 -16 9 -57 14 -89 11 -64 14 -296 4 -361 -23 -148
-25 -156 -47 -149 -21 6 -142 42 -168 49 -8 3 -31 9 -50 14 -71 19 -236 69
-262 80 -16 6 -28 8 -28 6 0 -2 -12 0 -27 6 -16 6 -35 12 -43 14 -8 2 -68 20
-134 40 -65 20 -153 45 -195 56 -42 11 -85 22 -96 25 -11 3 -27 7 -35 9 -8 2
-16 4 -17 5 -2 2 -6 3 -10 4 -187 43 -200 48 -213 85 -13 38 -63 91 -86 91
-12 0 -14 76 -15 438 0 240 0 469 1 509 1 39 -3 73 -7 76 -7 4 -46 0 -168 -18
-84 -12 -208 -52 -295 -94 -346 -170 -582 -478 -654 -851 -19 -97 -18 -324 1
-404 8 -34 17 -71 19 -83 7 -36 55 -167 65 -177 5 -6 9 -18 9 -27 0 -10 3 -19
8 -21 4 -1 17 -23 30 -48 32 -64 117 -175 187 -245 69 -69 149 -135 163 -135
5 0 17 -9 27 -20 10 -11 22 -20 26 -20 5 0 31 -14 59 -30 28 -17 57 -30 65
-30 7 0 15 -3 17 -7 3 -9 146 -58 193 -67 17 -4 41 -9 55 -11 90 -19 246 -24
335 -12 92 13 119 19 200 43 44 14 85 26 90 27 50 13 223 113 294 171 92 75
279 295 264 310 -4 3 -2 6 4 6 14 0 78 132 104 215 12 39 26 75 31 80 7 7 8 3
5 -10 -4 -11 -8 -31 -11 -45 -11 -67 -78 -210 -139 -300 -229 -338 -590 -532
-977 -524 -146 3 -199 11 -370 58 -8 3 -33 12 -55 22 -22 10 -42 18 -45 19
-14 3 -103 53 -161 90 -97 63 -159 118 -249 225 -30 36 -58 67 -62 68 -5 2 -8
8 -8 14 0 5 -11 24 -24 41 -25 33 -82 143 -110 212 -24 57 -65 221 -71 285
-16 162 3 366 45 475 7 17 13 38 16 49 8 41 109 225 162 296 142 191 347 346
555 421 79 29 254 66 332 72 l40 2 3 110 c2 100 11 133 32 120 3 -1 34 -6 70
-10 65 -7 179 -27 234 -41 19 -4 27 -3 23 3 -6 10 -103 34 -151 38 -11 1 -37
5 -56 8 -32 6 -169 15 -173 11z m-533 -772 c8 -13 -11 -35 -23 -28 -16 10 -14
36 3 36 8 0 17 -4 20 -8z m217 -19 c13 -16 12 -17 -3 -4 -10 7 -18 15 -18 17
0 8 8 3 21 -13z m50 -65 c16 -29 2 -21 -22 15 -17 23 -18 28 -6 18 10 -8 23
-23 28 -33z m-461 -292 c69 -24 132 -46 140 -49 8 -3 38 -13 66 -22 28 -8 60
-22 70 -31 18 -14 17 -15 -11 -11 -16 3 -77 22 -135 42 -58 20 -113 38 -122
40 -9 2 -26 9 -37 15 -12 6 -21 8 -21 4 0 -3 -6 -2 -12 4 -7 5 -28 13 -45 17
-19 4 -33 13 -33 21 0 19 -1 19 140 -30z m500 -321 c0 -25 -23 -35 -35 -15
-10 16 2 40 20 40 9 0 15 -9 15 -25z m-553 -141 c-3 -3 -12 -4 -19 -1 -8 3 -5
6 6 6 11 1 17 -2 13 -5z m1341 -409 c-3 -3 -9 2 -12 12 -6 14 -5 15 5 6 7 -7
10 -15 7 -18z m-988 -75 c17 -17 18 -24 8 -45 -9 -19 -19 -25 -44 -25 -44 0
-63 30 -39 66 19 29 48 31 75 4z"/>
<path d="M2010 3122 c0 -4 24 -15 53 -24 28 -9 60 -20 70 -23 9 -4 17 -3 17 2
0 9 -71 37 -97 38 -6 0 -15 4 -19 8 -10 9 -24 9 -24 -1z"/>
<path d="M2160 3073 c1 -11 100 -54 100 -43 0 4 -6 10 -12 13 -7 3 -30 12 -50
21 -21 9 -38 13 -38 9z"/>
<path d="M1938 2773 c-10 -12 -9 -18 7 -29 17 -13 21 -13 32 3 18 23 16 30 -7
36 -11 3 -25 -2 -32 -10z"/>
<path d="M2307 2677 c-27 -29 -44 -51 -146 -192 -45 -60 -94 -125 -111 -143
-16 -19 -30 -38 -30 -43 0 -9 -28 -58 -40 -69 -3 -3 -9 -12 -15 -22 -5 -9 -30
-45 -55 -80 -82 -114 -76 -110 57 37 108 120 105 117 115 103 7 -9 8 -8 4 5
-5 16 50 97 167 242 23 30 90 122 98 137 10 18 2 48 -13 48 -5 0 -19 -10 -31
-23z"/>
<path d="M1675 2410 c-2 -3 15 -7 38 -9 52 -2 158 -26 215 -48 23 -9 45 -14
47 -11 3 2 -32 16 -78 31 -84 27 -215 49 -222 37z"/>
<path d="M1990 2330 c0 -5 5 -10 11 -10 5 0 7 5 4 10 -3 6 -8 10 -11 10 -2 0
-4 -4 -4 -10z"/>
<path d="M2141 2215 c58 -65 139 -187 139 -208 0 -3 -25 -15 -55 -27 -31 -13
-54 -24 -52 -27 3 -2 28 5 56 17 28 11 53 20 55 20 5 0 27 -62 24 -66 -3 -2
-139 -31 -177 -38 -8 -2 -17 -9 -19 -16 -3 -7 0 -10 6 -6 12 7 159 36 184 36
12 0 21 -13 28 -40 15 -58 23 -170 11 -170 -5 0 -42 7 -82 15 -40 9 -74 13
-77 11 -2 -3 9 -8 24 -11 16 -4 52 -12 79 -19 72 -17 82 -13 79 32 -5 62 -13
115 -24 151 -11 39 -10 40 16 45 11 2 102 23 204 46 102 23 191 43 198 43 6 0
12 4 12 9 0 11 -17 10 -80 -7 -30 -8 -67 -17 -82 -20 -14 -3 -83 -18 -152 -33
-136 -31 -139 -30 -150 23 -12 57 -77 154 -156 235 -34 35 -36 36 -9 5z"/>
<path d="M2695 2169 c-99 -39 -332 -130 -369 -143 -10 -3 -17 -9 -14 -11 3 -3
21 2 41 10 20 8 38 14 39 13 2 -1 71 25 153 57 83 33 152 60 155 61 23 5 110
44 110 49 0 9 -16 4 -115 -36z"/>
<path d="M2074 1870 c-12 -5 -34 -11 -50 -13 -16 -3 -40 -10 -54 -16 l-25 -12
25 5 c89 18 130 30 130 38 0 9 1 9 -26 -2z"/>
<path d="M2847 1813 c-2 -1 -20 -3 -41 -5 -20 -1 -39 -6 -42 -10 -2 -4 5 -5
17 -3 11 2 41 5 65 6 47 3 70 15 28 15 -14 0 -26 -1 -27 -3z"/>
<path d="M2910 1811 c0 -4 11 -6 25 -3 14 2 25 6 25 8 0 2 -11 4 -25 4 -14 0
-25 -4 -25 -9z"/>
<path d="M2570 1778 c0 -4 4 -8 9 -8 6 0 12 4 15 8 3 5 -1 9 -9 9 -8 0 -15 -4
-15 -9z"/>
<path d="M2618 1783 c7 -3 16 -2 19 1 4 3 -2 6 -13 5 -11 0 -14 -3 -6 -6z"/>
<path d="M2420 1770 l-35 -7 32 -2 c17 0 35 4 38 9 3 6 5 9 3 9 -2 -1 -19 -5
-38 -9z"/>
<path d="M2490 1772 c0 -4 16 -6 35 -4 19 2 35 6 35 8 0 2 -16 4 -35 4 -19 0
-35 -4 -35 -8z"/>
<path d="M2385 1675 c31 -12 185 -42 185 -35 0 4 -38 14 -84 23 -78 16 -125
21 -101 12z"/>
</g>
</svg>
