<svg xmlns="http://www.w3.org/2000/svg" version="1.1" xmlns:xlink="http://www.w3.org/1999/xlink" width="2048" height="2048"><svg version="1.1" xmlns="http://www.w3.org/2000/svg" width="2048" height="2048">
<path d="M0 0 C1.76597534 -0.01945679 1.76597534 -0.01945679 3.56762695 -0.03930664 C10.11812014 -0.04632753 15.93297748 0.41001145 22.25 2.1875 C22.58 2.5175 22.91 2.8475 23.25 3.1875 C24.65499105 3.3201625 26.06597222 3.39076556 27.4765625 3.43359375 C28.34410156 3.46646484 29.21164062 3.49933594 30.10546875 3.53320312 C31.92828449 3.59362085 33.75120409 3.65099448 35.57421875 3.70507812 C48.26278736 4.20028736 48.26278736 4.20028736 51.25 7.1875 C54.34327022 7.39120316 57.42876629 7.53360352 60.52734375 7.6171875 C64.99187587 7.82769589 67.5523904 8.77386836 71.25 11.1875 C73.83503413 11.88565623 73.83503413 11.88565623 76.4375 12.25 C81.03647687 12.97397687 81.03647687 12.97397687 83.25 15.1875 C85.31043854 15.75633273 87.37186341 16.13605684 89.47265625 16.52734375 C90.05917969 16.74519531 90.64570312 16.96304687 91.25 17.1875 C91.58 18.1775 91.91 19.1675 92.25 20.1875 C93.3225 20.14625 94.395 20.105 95.5 20.0625 C98.90747485 20.1760825 100.45739631 20.40023364 103.25 22.1875 C103.25 22.8475 103.25 23.5075 103.25 24.1875 C104.178125 24.06375 105.10625 23.94 106.0625 23.8125 C111.78959657 23.7417951 116.51391587 27.30987926 121.25 30.1875 C121.25 30.8475 121.25 31.5075 121.25 32.1875 C121.86875 32.331875 122.4875 32.47625 123.125 32.625 C125.25 33.1875 125.25 33.1875 127.25 34.1875 C127.25 34.8475 127.25 35.5075 127.25 36.1875 C129.23 36.8475 131.21 37.5075 133.25 38.1875 C133.25 38.8475 133.25 39.5075 133.25 40.1875 C134.136875 40.290625 135.02375 40.39375 135.9375 40.5 C139.33422928 41.20498155 141.31931156 42.41366226 144.25 44.1875 C145.57 44.1875 146.89 44.1875 148.25 44.1875 C148.43998392 38.22399441 148.43998392 38.22399441 147.5 32.375 C147.25 30.1875 147.25 30.1875 148.6875 27.875 C151.55156894 25.98890582 153.65706395 25.5620105 157.08203125 25.72265625 C160.98940186 26.56045283 164.18958484 28.66895386 167.25 31.1875 C167.58 31.8475 167.91 32.5075 168.25 33.1875 C170.2366982 34.29288096 172.26671092 35.32074205 174.3125 36.3125 C174.93229736 36.61961914 175.55209473 36.92673828 176.19067383 37.24316406 C179.55139272 38.90445471 182.93193856 40.50275694 186.3515625 42.0390625 C195.50484769 46.23654589 203.22122693 50.88350031 209.25 59.1875 C210.44921875 62.82421875 210.44921875 62.82421875 211.25 66.1875 C213.02642154 70.28365859 213.02642154 70.28365859 215.8125 73.6875 C217.25 75.1875 217.25 75.1875 217.9375 77.875 C220.3266826 83.90484179 225.00894299 88.06697149 230.75 90.9375 C232.4825 91.55625 232.4825 91.55625 234.25 92.1875 C242.67179249 95.68851335 246.21357061 99.93116716 250.25 108.1875 C250.765625 108.6825 251.28125 109.1775 251.8125 109.6875 C253.88975925 111.85507487 254.34791051 114.36095293 255.25 117.1875 C255.91 117.8475 256.57 118.5075 257.25 119.1875 C257.62125 120.54875 257.62125 120.54875 258 121.9375 C259.21101132 125.08612942 259.88391312 126.00518686 262.25 128.1875 C265.20337286 130.91148468 266.1838706 133.27835887 267.25 137.1875 C267.91 137.8475 268.57 138.5075 269.25 139.1875 C269.9513284 141.51065031 270.61485174 143.84539079 271.25 146.1875 C271.58 147.0125 271.91 147.8375 272.25 148.6875 C274.29443247 153.79858118 275.32369905 158.69204194 275.90234375 164.15234375 C276.38998049 167.00693633 277.47667425 169.51469817 278.5625 172.1875 C279.47598161 174.84490103 279.67797325 177.41471298 279.9375 180.19921875 C280.27153029 182.32448648 280.91224404 184.02241261 281.75 186 C283.48260355 190.23058052 283.77376459 194.33185661 284.0390625 198.8671875 C284.11008162 201.21132936 284.11008162 201.21132936 285.25 203.1875 C285.56045526 205.77893905 285.75973912 208.37121732 285.96875 210.97265625 C286.0165741 213.15820668 286.0165741 213.15820668 287.25 214.1875 C287.57446337 217.28792773 287.76334441 220.3895725 287.96875 223.5 C287.95607799 226.10346752 287.95607799 226.10346752 289.25 227.1875 C289.3960622 229.05393397 289.47737303 230.92550993 289.53125 232.796875 C289.56863281 233.94414063 289.60601563 235.09140625 289.64453125 236.2734375 C289.67933594 237.48257813 289.71414063 238.69171875 289.75 239.9375 C289.81910093 242.307406 289.89188161 244.67720822 289.96875 247.046875 C289.99904297 248.10358398 290.02933594 249.16029297 290.06054688 250.24902344 C290.18204931 253.18584907 290.18204931 253.18584907 290.83007812 256.00878906 C290.96865234 256.72776367 291.10722656 257.44673828 291.25 258.1875 C290.92 258.5175 290.59 258.8475 290.25 259.1875 C290.1316807 261.10929485 290.0826115 263.0353861 290.06054688 264.96069336 C290.04382935 266.19544907 290.02711182 267.43020477 290.0098877 268.70237732 C289.99986473 269.69825269 289.99986473 269.69825269 289.98963928 270.71424675 C289.96866372 272.78586468 289.94163651 274.85732353 289.91296387 276.92884827 C289.85317801 281.32750478 289.80107472 285.72623485 289.75 290.125 C289.69082214 295.21720656 289.62853773 300.30933502 289.55812073 305.40139961 C289.53150234 307.4454665 289.5107126 309.489541 289.4901123 311.53367615 C289.47339478 312.77158401 289.45667725 314.00949188 289.43945312 315.28491211 C289.42692505 316.37887802 289.41439697 317.47284393 289.40148926 318.59996033 C289.25 321.1875 289.25 321.1875 288.25 323.1875 C288.16356429 325.10192321 288.1429399 327.01944059 288.15234375 328.93579102 C288.15560165 330.15506287 288.15885956 331.37433472 288.16221619 332.6305542 C288.16632948 333.28941368 288.17044277 333.94827316 288.17468071 334.62709808 C288.18772414 336.72750049 288.19473646 338.82784867 288.20021057 340.92828369 C288.20859421 343.95493792 288.2193669 346.98156963 288.23196411 350.00820923 C288.26386931 357.96898655 288.27344368 365.92978987 288.27734375 373.890625 C288.27777113 374.69660944 288.27819851 375.50259388 288.27863884 376.33300209 C288.28298919 392.89183318 288.10089179 409.4437998 287.8125 426 C287.79276123 427.23517365 287.77302246 428.47034729 287.75268555 429.74295044 C287.69645444 433.18944866 287.63303665 436.63572018 287.56640625 440.08203125 C287.54969376 441.1015387 287.53298126 442.12104614 287.51576233 443.17144775 C287.49581711 444.08915955 287.47587189 445.00687134 287.45532227 445.95239258 C287.43977798 446.75163651 287.4242337 447.55088043 287.40821838 448.37434387 C287.25 450.1875 287.25 450.1875 286.25 451.1875 C286.15229799 452.6146362 286.12368305 454.0465743 286.12301636 455.47705078 C286.12019653 456.40253723 286.11737671 457.32802368 286.11447144 458.28155518 C286.11750778 459.81667755 286.11750778 459.81667755 286.12060547 461.3828125 C286.11797699 462.98996124 286.11797699 462.98996124 286.11529541 464.62957764 C286.11087447 468.19056797 286.11381574 471.75150911 286.1171875 475.3125 C286.11651453 477.77490244 286.11554456 480.23730482 286.11428833 482.69970703 C286.11281103 487.86817048 286.11496695 493.03661668 286.11962891 498.20507812 C286.1253262 504.84690727 286.12204737 511.48869602 286.11605644 518.13052368 C286.1124517 523.21753242 286.11358901 528.3045315 286.11618423 533.39154053 C286.11685375 535.8412883 286.11602425 538.29103693 286.11370468 540.74078369 C286.11117958 544.1579421 286.11501674 547.57503407 286.12060547 550.9921875 C286.11858124 552.01560242 286.11655701 553.03901733 286.11447144 554.09344482 C286.11870117 555.4816745 286.11870117 555.4816745 286.12301636 556.89794922 C286.12339338 557.70690643 286.12377041 558.51586365 286.12415886 559.34933472 C286.04896163 561.20551494 286.04896163 561.20551494 287.25 562.1875 C287.36867707 564.22840369 287.41743664 566.27339424 287.43945312 568.31762695 C287.45617065 569.63442947 287.47288818 570.95123199 287.4901123 572.30793762 C287.50013527 573.37342803 287.50013527 573.37342803 287.51036072 574.4604435 C287.53144649 576.69661954 287.55848449 578.93265456 287.58703613 581.16874695 C287.64685844 585.94577494 287.69863436 590.72287485 287.75 595.5 C287.81797804 601.72532423 287.88978482 607.95058613 287.96875 614.17578125 C287.98292245 615.30741416 287.98292245 615.30741416 287.99738121 616.46190834 C288.13090926 626.74517979 288.4381351 637.00090337 289.03173828 647.26879883 C289.32164746 652.47386851 289.44164452 657.66256929 289.4375 662.875 C289.43737915 664.41401978 289.43737915 664.41401978 289.43725586 665.98413086 C289.3615123 677.08335267 288.8414979 688.164736 288.3125 699.25 C288.24728653 700.64815445 288.24728653 700.64815445 288.18075562 702.07455444 C288.05487981 704.72842863 287.92158586 707.38180582 287.78515625 710.03515625 C287.72725418 711.2488942 287.72725418 711.2488942 287.66818237 712.4871521 C287.36578461 718.07171539 287.36578461 718.07171539 286.25 719.1875 C286.1488308 722.27831465 286.11031442 725.34632555 286.1171875 728.4375 C286.11575241 729.8301709 286.11575241 729.8301709 286.11428833 731.25097656 C286.11360645 733.21809965 286.11546128 735.18522496 286.11962891 737.15234375 C286.12497705 740.17453026 286.11968418 743.19656815 286.11328125 746.21875 C286.11394203 748.12500033 286.11522319 750.03125057 286.1171875 751.9375 C286.11516327 752.84790039 286.11313904 753.75830078 286.11105347 754.69628906 C285.71108668 758.76413678 285.71108668 758.76413678 287.25 762.1875 C287.34861598 763.80877423 287.37798767 765.43432368 287.37939453 767.05859375 C287.38412277 768.61525757 287.38412277 768.61525757 287.38894653 770.20336914 C287.3869223 771.33250732 287.38489807 772.46164551 287.3828125 773.625 C287.38376923 774.77540771 287.38472595 775.92581543 287.38571167 777.11108398 C287.38639369 779.54899144 287.3845379 781.9869007 287.38037109 784.42480469 C287.37502317 788.17126518 287.38031539 791.91760577 287.38671875 795.6640625 C287.38605797 798.02604193 287.38477682 800.38802129 287.3828125 802.75 C287.38483673 803.87913818 287.38686096 805.00827637 287.38894653 806.17163086 C287.38579437 807.20940674 287.38264221 808.24718262 287.37939453 809.31640625 C287.37820114 810.69421265 287.37820114 810.69421265 287.37698364 812.09985352 C287.25 814.1875 287.25 814.1875 286.25 815.1875 C286.09146018 816.9605041 286.00096663 818.73962574 285.93701172 820.51855469 C285.89386841 821.67096649 285.8507251 822.8233783 285.80627441 824.01071167 C285.76450073 825.28077057 285.72272705 826.55082947 285.6796875 827.859375 C285.6338855 829.17753204 285.5880835 830.49568909 285.54089355 831.85379028 C285.39219061 836.2147265 285.25777539 840.57605417 285.125 844.9375 C285.10177925 845.68583351 285.0785585 846.43416702 285.05463409 847.20517731 C284.37259739 869.25927317 284.2091988 891.21988715 284.78808594 913.28125 C285.28791557 932.66082327 285.37468133 952.03055002 285.37427521 971.41544342 C285.37498796 973.89560029 285.37810717 976.37574228 285.38201904 978.855896 C285.40380684 993.81995702 285.40746596 1008.75306923 284.6796875 1023.703125 C284.30819356 1031.43219227 284.30878784 1038.98225342 284.80722046 1046.7013092 C285.34851622 1055.56101086 285.43248137 1064.41959923 285.53125 1073.29296875 C285.54070648 1074.10309544 285.55016296 1074.91322212 285.55990601 1075.7478981 C285.63846809 1082.49220502 285.70861301 1089.23659173 285.77606201 1095.98101807 C285.82692165 1101.05737879 285.8815676 1106.1336671 285.94187927 1111.2099247 C285.96840643 1113.57483927 285.98921253 1115.93976139 286.0098877 1118.30473328 C286.02646942 1119.7359553 286.04333933 1121.16717403 286.06054688 1122.59838867 C286.07307495 1123.85044601 286.08560303 1125.10250336 286.09851074 1126.39250183 C285.93287921 1129.09297965 285.93287921 1129.09297965 287.25 1130.1875 C287.3507812 1132.55148468 287.38973215 1134.88561311 287.3828125 1137.25 C287.38376923 1137.95648682 287.38472595 1138.66297363 287.38571167 1139.39086914 C287.38639333 1140.88720793 287.38454005 1142.38354967 287.38037109 1143.87988281 C287.37502257 1146.17780157 287.38031651 1148.47552486 287.38671875 1150.7734375 C287.38605797 1152.22395877 287.3847768 1153.67447991 287.3828125 1155.125 C287.38584885 1156.1624939 287.38584885 1156.1624939 287.38894653 1157.22094727 C287.36495224 1162.07254776 287.36495224 1162.07254776 286.25 1163.1875 C286.14987599 1165.39400656 286.1191882 1167.60372386 286.1171875 1169.8125 C286.11575241 1170.80564209 286.11575241 1170.80564209 286.11428833 1171.81884766 C286.11360674 1173.22102961 286.11545958 1174.6232147 286.11962891 1176.02539062 C286.12497754 1178.17845713 286.1196833 1180.33131502 286.11328125 1182.484375 C286.11394204 1183.84375046 286.11522321 1185.2031258 286.1171875 1186.5625 C286.11831543 1187.80773438 286.11944336 1189.05296875 286.12060547 1190.3359375 C285.92427873 1193.08655431 285.92427873 1193.08655431 287.25 1194.1875 C287.3828125 1196 287.3828125 1196 287.375 1198.1875 C287.37757812 1198.909375 287.38015625 1199.63125 287.3828125 1200.375 C287.25 1202.1875 287.25 1202.1875 286.25 1203.1875 C286.14301091 1204.72072246 286.10378756 1206.25874653 286.09228516 1207.7956543 C286.08202301 1208.77725021 286.07176086 1209.75884613 286.06118774 1210.77018738 C286.05388641 1211.83989273 286.04658508 1212.90959808 286.0390625 1214.01171875 C286.0109842 1216.25977279 285.98231967 1218.50781956 285.953125 1220.75585938 C285.91190762 1224.31306686 285.87503607 1227.87014024 285.84863281 1231.42749023 C285.82098949 1234.85168805 285.77510345 1238.27526188 285.7265625 1241.69921875 C285.72330963 1242.75880295 285.72005676 1243.81838715 285.71670532 1244.91007996 C285.62374295 1250.50672588 285.18909718 1254.2736969 282.25 1259.1875 C281.71710916 1262.80557568 281.71710916 1262.80557568 281.625 1266.5 C281.3352459 1273.1022541 281.3352459 1273.1022541 280.25 1274.1875 C280.04395915 1275.51531878 279.8837041 1276.85045895 279.75 1278.1875 C279.36111111 1282.07638889 279.36111111 1282.07638889 278.25 1283.1875 C278.12901073 1284.75080867 278.07041303 1286.31904865 278.0390625 1287.88671875 C278.01070312 1288.84900391 277.98234375 1289.81128906 277.953125 1290.80273438 C277.90154272 1292.83120747 277.85712796 1294.85987705 277.8203125 1296.88867188 C277.64007528 1302.53234976 277.01874611 1306.1749908 274.25 1311.1875 C273.68288255 1314.60866696 273.68288255 1314.60866696 273.5625 1318.0625 C273.49675781 1319.21492188 273.43101563 1320.36734375 273.36328125 1321.5546875 C273.32589844 1322.42351562 273.28851562 1323.29234375 273.25 1324.1875 C271.93 1324.1875 270.61 1324.1875 269.25 1324.1875 C269.25 1328.1475 269.25 1332.1075 269.25 1336.1875 C267.93 1336.1875 266.61 1336.1875 265.25 1336.1875 C265.25 1338.8275 265.25 1341.4675 265.25 1344.1875 C263.93 1344.1875 262.61 1344.1875 261.25 1344.1875 C261.25 1345.5075 261.25 1346.8275 261.25 1348.1875 C259.93 1348.1875 258.61 1348.1875 257.25 1348.1875 C257.25 1352.1475 257.25 1356.1075 257.25 1360.1875 C255.93 1360.1875 254.61 1360.1875 253.25 1360.1875 C253.25 1362.8275 253.25 1365.4675 253.25 1368.1875 C251.93 1368.1875 250.61 1368.1875 249.25 1368.1875 C249.25 1370.8275 249.25 1373.4675 249.25 1376.1875 C247.93 1376.1875 246.61 1376.1875 245.25 1376.1875 C245.25 1378.8275 245.25 1381.4675 245.25 1384.1875 C243.93 1384.1875 242.61 1384.1875 241.25 1384.1875 C241.25 1386.8275 241.25 1389.4675 241.25 1392.1875 C239.93 1392.1875 238.61 1392.1875 237.25 1392.1875 C237.25 1393.5075 237.25 1394.8275 237.25 1396.1875 C235.93 1396.1875 234.61 1396.1875 233.25 1396.1875 C233.25 1397.5075 233.25 1398.8275 233.25 1400.1875 C231.93 1400.1875 230.61 1400.1875 229.25 1400.1875 C229.25 1401.5075 229.25 1402.8275 229.25 1404.1875 C227.93 1404.1875 226.61 1404.1875 225.25 1404.1875 C225.25 1405.5075 225.25 1406.8275 225.25 1408.1875 C223.93 1408.1875 222.61 1408.1875 221.25 1408.1875 C221.25 1409.5075 221.25 1410.8275 221.25 1412.1875 C219.93 1412.1875 218.61 1412.1875 217.25 1412.1875 C217.25 1414.8275 217.25 1417.4675 217.25 1420.1875 C215.93 1420.1875 214.61 1420.1875 213.25 1420.1875 C213.25 1421.5075 213.25 1422.8275 213.25 1424.1875 C211.93 1424.1875 210.61 1424.1875 209.25 1424.1875 C209.25 1426.8275 209.25 1429.4675 209.25 1432.1875 C207.93 1432.1875 206.61 1432.1875 205.25 1432.1875 C205.25 1433.5075 205.25 1434.8275 205.25 1436.1875 C203.93 1436.1875 202.61 1436.1875 201.25 1436.1875 C201.25 1437.5075 201.25 1438.8275 201.25 1440.1875 C199.93 1440.1875 198.61 1440.1875 197.25 1440.1875 C197.25 1441.5075 197.25 1442.8275 197.25 1444.1875 C194.61 1444.1875 191.97 1444.1875 189.25 1444.1875 C189.25 1445.5075 189.25 1446.8275 189.25 1448.1875 C187.93 1448.1875 186.61 1448.1875 185.25 1448.1875 C185.25 1449.5075 185.25 1450.8275 185.25 1452.1875 C184.46625 1452.47625 183.6825 1452.765 182.875 1453.0625 C180.15328368 1454.03662254 180.15328368 1454.03662254 178.25 1456.1875 C175.625 1456.3125 175.625 1456.3125 173.25 1456.1875 C173.25 1457.5075 173.25 1458.8275 173.25 1460.1875 C170.61 1460.1875 167.97 1460.1875 165.25 1460.1875 C165.25 1461.5075 165.25 1462.8275 165.25 1464.1875 C162.61 1464.1875 159.97 1464.1875 157.25 1464.1875 C157.25 1465.5075 157.25 1466.8275 157.25 1468.1875 C156.46625 1468.47625 155.6825 1468.765 154.875 1469.0625 C152.15328368 1470.03662254 152.15328368 1470.03662254 150.25 1472.1875 C149.321875 1472.47625 148.39375 1472.765 147.4375 1473.0625 C143.98949556 1474.27944274 142.07847269 1475.91092442 139.25 1478.1875 C136.93745988 1479.23468798 134.6014852 1480.23096365 132.25 1481.1875 C129.56146281 1482.4777819 126.90799755 1483.83563127 124.25 1485.1875 C122.2085608 1486.21014186 120.16568808 1487.22977493 118.12109375 1488.24609375 C116.46514791 1489.07925231 114.82498937 1489.94362809 113.1875 1490.8125 C109.93521633 1492.33484555 106.71057928 1493.24370565 103.25 1494.1875 C102.425 1494.5175 101.6 1494.8475 100.75 1495.1875 C95.63891882 1497.23193247 90.74545806 1498.26119905 85.28515625 1498.83984375 C82.4394389 1499.32596437 79.9402725 1500.4059235 77.27734375 1501.4921875 C73.99499895 1502.61792425 70.69147082 1502.82523991 67.25 1503.1875 C66.92 1503.5175 66.59 1503.8475 66.25 1504.1875 C64.92113927 1504.33136104 63.58551413 1504.41426288 62.25 1504.46875 C61.445625 1504.50613281 60.64125 1504.54351563 59.8125 1504.58203125 C58.10416667 1504.65234375 56.39583333 1504.72265625 54.6875 1504.79296875 C53.883125 1504.83035156 53.07875 1504.86773438 52.25 1504.90625 C51.13625 1504.95168945 51.13625 1504.95168945 50 1504.99804688 C48.22311145 1505.00542413 48.22311145 1505.00542413 47.25 1506.1875 C45.1927083 1506.50673492 43.13386479 1506.69911352 41.0625 1506.90625 C39.2332467 1507.00748043 39.2332467 1507.00748043 38.25 1508.1875 C34.95222832 1508.4327888 31.65541591 1508.57175077 28.3515625 1508.7109375 C25.26728477 1508.85571954 25.26728477 1508.85571954 23.85559082 1510.6932373 C21.68575852 1512.71261822 20.39066316 1512.56521932 17.45898438 1512.57226562 C16.00232361 1512.58743225 16.00232361 1512.58743225 14.51623535 1512.60290527 C13.46931519 1512.59988403 12.42239502 1512.59686279 11.34375 1512.59375 C9.72938049 1512.61000427 9.72938049 1512.61000427 8.08239746 1512.62658691 C3.47050402 1512.67256041 -1.14133625 1512.6839461 -5.75341797 1512.69873047 C-9.11706813 1512.71438859 -12.480242 1512.74738453 -15.84375 1512.78125 C-16.89067017 1512.77822876 -17.93759033 1512.77520752 -19.01623535 1512.77209473 C-20.47289612 1512.78726135 -20.47289612 1512.78726135 -21.95898438 1512.80273438 C-22.81375366 1512.80478882 -23.66852295 1512.80684326 -24.54919434 1512.80895996 C-26.83265752 1512.9525385 -26.83265752 1512.9525385 -27.96205711 1514.68665886 C-30.69690724 1516.98235612 -33.03374612 1516.57016276 -36.55789185 1516.57949829 C-37.60198426 1516.58841018 -37.60198426 1516.58841018 -38.66716945 1516.59750211 C-41.00499964 1516.61384333 -43.34230053 1516.60883853 -45.68017578 1516.60400391 C-47.35385753 1516.61138104 -49.02753388 1516.62008514 -50.70120239 1516.63002014 C-55.2505615 1516.65338495 -59.79978427 1516.65849488 -64.34919596 1516.66067934 C-69.10270698 1516.66632981 -73.85612845 1516.68959513 -78.60958862 1516.71127319 C-87.61456585 1516.74983099 -96.61951754 1516.77402897 -105.62455642 1516.79239786 C-121.76386687 1516.82578706 -137.903101 1516.88341569 -154.04232013 1516.94638956 C-159.7112448 1516.96793898 -165.38014283 1516.98317554 -171.04909921 1516.99322915 C-174.56725256 1517.00022428 -178.08538678 1517.01110099 -181.60352707 1517.02287102 C-183.24146381 1517.02744658 -184.87940643 1517.03028056 -186.51734924 1517.03129387 C-188.74363119 1517.03285479 -190.96981335 1517.04040487 -193.19607544 1517.04946899 C-194.44489565 1517.05202509 -195.69371586 1517.05458118 -196.9803791 1517.05721474 C-199.65867801 1516.87181149 -199.65867801 1516.87181149 -200.75 1518.1875 C-203.11398468 1518.2882812 -205.44811311 1518.32723215 -207.8125 1518.3203125 C-208.51898682 1518.32126923 -209.22547363 1518.32222595 -209.95336914 1518.32321167 C-211.44970793 1518.32389333 -212.94604967 1518.32204005 -214.44238281 1518.31787109 C-216.74030157 1518.31252257 -219.03802486 1518.31781651 -221.3359375 1518.32421875 C-222.78645877 1518.32355797 -224.23697991 1518.3222768 -225.6875 1518.3203125 C-226.7249939 1518.32334885 -226.7249939 1518.32334885 -227.78344727 1518.32644653 C-232.63504776 1518.30245224 -232.63504776 1518.30245224 -233.75 1517.1875 C-236.91076344 1517.08680221 -240.04972027 1517.05135977 -243.2109375 1517.05810547 C-244.7010434 1517.05547699 -244.7010434 1517.05547699 -246.22125244 1517.05279541 C-249.52251912 1517.04837489 -252.82373273 1517.05131559 -256.125 1517.0546875 C-258.40804047 1517.05401452 -260.69108087 1517.05304454 -262.97412109 1517.05178833 C-267.76595744 1517.05031109 -272.55777519 1517.05246677 -277.34960938 1517.05712891 C-283.50716635 1517.0628262 -289.66467974 1517.05954734 -295.82223511 1517.05355644 C-300.53865897 1517.04995155 -305.25507241 1517.05108909 -309.97149658 1517.05368423 C-312.2426148 1517.0543537 -314.51373394 1517.0535244 -316.78485107 1517.05120468 C-319.95294722 1517.04867933 -323.12097172 1517.0525171 -326.2890625 1517.05810547 C-327.23767151 1517.05608124 -328.18628052 1517.05405701 -329.16363525 1517.05197144 C-333.28189411 1516.6429424 -333.28189411 1516.6429424 -336.75 1518.1875 C-339.40456193 1518.28845564 -342.03255176 1518.32720998 -344.6875 1518.3203125 C-345.482771 1518.32126923 -346.27804199 1518.32222595 -347.09741211 1518.32321167 C-348.7820646 1518.32389343 -350.46671971 1518.32203943 -352.15136719 1518.31787109 C-354.73899197 1518.31252275 -357.32644316 1518.31781619 -359.9140625 1518.32421875 C-361.54687539 1518.32355797 -363.17968816 1518.3222768 -364.8125 1518.3203125 C-365.98123657 1518.32334885 -365.98123657 1518.32334885 -367.17358398 1518.32644653 C-372.63504895 1518.30245105 -372.63504895 1518.30245105 -373.75 1517.1875 C-375.21705061 1517.07974086 -376.6892128 1517.0406844 -378.16017151 1517.02928162 C-379.11234558 1517.0194928 -380.06451965 1517.00970398 -381.04554749 1516.99961853 C-382.09858566 1516.99386307 -383.15162384 1516.9881076 -384.23657227 1516.98217773 C-385.33887177 1516.97227814 -386.44117126 1516.96237854 -387.57687378 1516.95217896 C-391.24002902 1516.92045513 -394.90319726 1516.89576367 -398.56640625 1516.87109375 C-401.0984685 1516.85053361 -403.63052725 1516.8295374 -406.1625824 1516.80812073 C-412.15845003 1516.75846461 -418.15433542 1516.71322459 -424.15025228 1516.67009836 C-430.9748451 1516.62076728 -437.79938916 1516.56583389 -444.62393486 1516.51041877 C-458.66591111 1516.39652442 -472.70793413 1516.28970169 -486.75 1516.1875 C-486.75 1517.5075 -486.75 1518.8275 -486.75 1520.1875 C-488.60516235 1520.22508423 -488.60516235 1520.22508423 -490.49780273 1520.26342773 C-495.06936713 1520.35732253 -499.64077318 1520.45758629 -504.2121582 1520.55981445 C-506.19389146 1520.60323144 -508.17566378 1520.64490137 -510.1574707 1520.68481445 C-512.9996317 1520.74235383 -515.84159483 1520.80609445 -518.68359375 1520.87109375 C-519.57525742 1520.88780624 -520.46692108 1520.90451874 -521.38560486 1520.92173767 C-525.38948395 1520.624087 -525.38948395 1520.624087 -528.75 1522.1875 C-530.74799572 1522.28623816 -532.74957158 1522.31721799 -534.75 1522.3125 C-535.843125 1522.31507812 -536.93625 1522.31765625 -538.0625 1522.3203125 C-540.75 1522.1875 -540.75 1522.1875 -541.75 1521.1875 C-544.15250532 1521.06260302 -546.52772785 1521.0014921 -548.93188477 1520.98217773 C-550.0586412 1520.96732834 -550.0586412 1520.96732834 -551.2081604 1520.95217896 C-553.70254312 1520.92047454 -556.19694491 1520.89577141 -558.69140625 1520.87109375 C-560.41634123 1520.85053193 -562.14127108 1520.82953567 -563.86619568 1520.80812073 C-568.41506814 1520.75282029 -572.96398667 1520.70344631 -577.51293945 1520.65527344 C-582.15124633 1520.60511646 -586.78948598 1520.54940017 -591.42773438 1520.49414062 C-600.53509888 1520.38646161 -609.64252165 1520.28503843 -618.75 1520.1875 C-618.75 1518.8675 -618.75 1517.5475 -618.75 1516.1875 C-622.68834878 1516.2682386 -626.62513327 1516.38109377 -630.5625 1516.5 C-631.68205078 1516.52255859 -632.80160156 1516.54511719 -633.95507812 1516.56835938 C-635.02822266 1516.60380859 -636.10136719 1516.63925781 -637.20703125 1516.67578125 C-638.19678955 1516.70196533 -639.18654785 1516.72814941 -640.20629883 1516.75512695 C-643.18510455 1517.26145817 -643.70288342 1518.1028842 -645.75 1520.1875 C-648.0625 1520.57568359 -648.0625 1520.57568359 -650.75 1520.5859375 C-652.2040625 1520.59173828 -652.2040625 1520.59173828 -653.6875 1520.59765625 C-654.698125 1520.58605469 -655.70875 1520.57445312 -656.75 1520.5625 C-657.760625 1520.57410156 -658.77125 1520.58570313 -659.8125 1520.59765625 C-660.781875 1520.59378906 -661.75125 1520.58992188 -662.75 1520.5859375 C-663.636875 1520.58255371 -664.52375 1520.57916992 -665.4375 1520.57568359 C-667.75 1520.1875 -667.75 1520.1875 -669.0741272 1518.68551636 C-671.37640014 1516.62757823 -672.81928104 1516.81893748 -675.87646484 1516.83105469 C-676.92119965 1516.82805359 -677.96593445 1516.82505249 -679.04232788 1516.82196045 C-680.73453964 1516.84048065 -680.73453964 1516.84048065 -682.4609375 1516.859375 C-683.62122467 1516.86124817 -684.78151184 1516.86312134 -685.97695923 1516.86505127 C-688.43323637 1516.8717787 -690.88950268 1516.88570677 -693.34570312 1516.90625 C-697.10296608 1516.93731781 -700.859809 1516.94721252 -704.6171875 1516.953125 C-707.00260927 1516.9622987 -709.38802678 1516.97267563 -711.7734375 1516.984375 C-712.89753021 1516.98862488 -714.02162292 1516.99287476 -715.17977905 1516.99725342 C-716.23081818 1517.00686096 -717.2818573 1517.01646851 -718.36474609 1517.02636719 C-719.28613373 1517.03319519 -720.20752136 1517.04002319 -721.15682983 1517.04705811 C-723.79750768 1517.12553856 -723.79750768 1517.12553856 -726.52407837 1517.7600708 C-727.25863251 1517.90112244 -727.99318665 1518.04217407 -728.75 1518.1875 C-729.08 1517.8575 -729.41 1517.5275 -729.75 1517.1875 C-734.56868104 1516.7156141 -738.5791424 1516.5905922 -742.9375 1518.8125 C-745.75 1520.1875 -745.75 1520.1875 -749.5625 1519.4375 C-752.75 1518.1875 -752.75 1518.1875 -753.75 1517.1875 C-755.89386657 1517.02891158 -758.04266838 1516.93620702 -760.19140625 1516.87109375 C-761.49658203 1516.82919922 -762.80175781 1516.78730469 -764.14648438 1516.74414062 C-765.5351533 1516.70432392 -766.92382522 1516.66461175 -768.3125 1516.625 C-769.70509183 1516.58182011 -771.09767028 1516.538206 -772.49023438 1516.49414062 C-775.91004801 1516.38764124 -779.32993763 1516.28563077 -782.75 1516.1875 C-782.75 1514.8675 -782.75 1513.5475 -782.75 1512.1875 C-795.95 1512.1875 -809.15 1512.1875 -822.75 1512.1875 C-822.75 1513.5075 -822.75 1514.8275 -822.75 1516.1875 C-835.95 1516.1875 -849.15 1516.1875 -862.75 1516.1875 C-862.75 1514.8675 -862.75 1513.5475 -862.75 1512.1875 C-901.03 1512.1875 -939.31 1512.1875 -978.75 1512.1875 C-978.75 1510.8675 -978.75 1509.5475 -978.75 1508.1875 C-979.47590332 1508.20321045 -980.20180664 1508.2189209 -980.94970703 1508.23510742 C-984.25805788 1508.29770355 -987.56628381 1508.33656912 -990.875 1508.375 C-992.58816406 1508.41270508 -992.58816406 1508.41270508 -994.3359375 1508.45117188 C-1000.36178242 1508.50372285 -1004.47250594 1508.37683567 -1009.75 1505.1875 C-1012.44919424 1504.66392038 -1012.44919424 1504.66392038 -1015.0625 1504.5625 C-1019.6638756 1504.2736244 -1019.6638756 1504.2736244 -1020.75 1503.1875 C-1022.62144591 1503.00153613 -1024.49780304 1502.8641224 -1026.375 1502.75 C-1031.10034003 1502.39294951 -1035.22363203 1501.63935388 -1039.75 1500.1875 C-1041.24783996 1499.86480557 -1042.74803548 1499.55291721 -1044.25 1499.25 C-1048.38908682 1498.35601356 -1051.90775806 1496.96084243 -1055.75 1495.1875 C-1057.11125 1494.6615625 -1057.11125 1494.6615625 -1058.5 1494.125 C-1060.75 1493.1875 -1060.75 1493.1875 -1063.75 1491.1875 C-1064.64203125 1490.89488281 -1065.5340625 1490.60226562 -1066.453125 1490.30078125 C-1070.34077613 1488.98800806 -1073.85548086 1487.24370462 -1077.5 1485.375 C-1078.91780725 1484.65332846 -1080.33577585 1483.93197382 -1081.75390625 1483.2109375 C-1082.43727051 1482.86256836 -1083.12063477 1482.51419922 -1083.82470703 1482.15527344 C-1086.34063886 1480.89060773 -1088.89129036 1479.70227041 -1091.4375 1478.5 C-1095.27757049 1476.59916511 -1097.75381936 1474.2646585 -1100.75 1471.1875 C-1102.43015318 1470.54128724 -1104.11074919 1469.89608943 -1105.796875 1469.265625 C-1109.27399135 1467.34625678 -1111.72064398 1464.28006271 -1114.34375 1461.34375 C-1116.65322936 1459.00166848 -1116.65322936 1459.00166848 -1119.8605957 1458.07250977 C-1125.06552739 1455.91263326 -1128.53243788 1451.86177638 -1132.38671875 1447.87109375 C-1133.18858109 1447.05882828 -1133.99044342 1446.24656281 -1134.81660461 1445.40968323 C-1137.36663818 1442.82415036 -1139.9028446 1440.22560313 -1142.4375 1437.625 C-1144.98458859 1435.02262875 -1147.53456164 1432.42325582 -1150.0905304 1429.8296051 C-1151.67765367 1428.21801607 -1153.25939987 1426.60110991 -1154.83512878 1424.9783783 C-1155.55300064 1424.24744461 -1156.2708725 1423.51651093 -1157.01049805 1422.76342773 C-1157.95145576 1421.79771095 -1157.95145576 1421.79771095 -1158.91142273 1420.81248474 C-1160.76916738 1419.17055935 -1162.54258766 1418.27814914 -1164.75 1417.1875 C-1165.75 1415.52083333 -1166.75 1413.85416667 -1167.75 1412.1875 C-1168.87519288 1411.06230712 -1170.02337545 1409.95986501 -1171.1875 1408.875 C-1174.2989802 1405.87417914 -1175.96943384 1403.07349714 -1177.71875 1399.16015625 C-1178.84911117 1396.99791235 -1180.17038008 1395.42408727 -1181.8125 1393.625 C-1184.71310555 1390.4183004 -1186.19976587 1387.247637 -1187.75 1383.1875 C-1189.18919704 1379.996237 -1190.25527914 1377.65223778 -1192.8125 1375.25 C-1195.45406707 1372.43800924 -1195.84463543 1369.92967358 -1196.75 1366.1875 C-1197.21385557 1364.43337951 -1197.6937498 1362.68344142 -1198.1875 1360.9375 C-1198.41308594 1360.10734375 -1198.63867188 1359.2771875 -1198.87109375 1358.421875 C-1199.82052228 1356.00821669 -1200.89533527 1354.94844497 -1202.75 1353.1875 C-1203.44100553 1351.19577818 -1204.10902703 1349.19588196 -1204.75 1347.1875 C-1205.41 1346.5275 -1206.07 1345.8675 -1206.75 1345.1875 C-1206.875 1342.5625 -1206.875 1342.5625 -1206.75 1340.1875 C-1208.07 1340.1875 -1209.39 1340.1875 -1210.75 1340.1875 C-1210.75 1336.2275 -1210.75 1332.2675 -1210.75 1328.1875 C-1212.07 1328.1875 -1213.39 1328.1875 -1214.75 1328.1875 C-1214.78738281 1327.35605469 -1214.82476563 1326.52460937 -1214.86328125 1325.66796875 C-1214.96189453 1324.03794922 -1214.96189453 1324.03794922 -1215.0625 1322.375 C-1215.12050781 1321.29605469 -1215.17851563 1320.21710938 -1215.23828125 1319.10546875 C-1215.81093489 1315.8400316 -1216.46499972 1315.37704335 -1218.75 1313.1875 C-1219.2265625 1310.7421875 -1219.2265625 1310.7421875 -1219.375 1308.0625 C-1219.31533788 1304.81838186 -1219.31533788 1304.81838186 -1220.75 1302.1875 C-1221.06923492 1300.1302083 -1221.26161352 1298.07136479 -1221.46875 1296 C-1221.56998043 1294.1707467 -1221.56998043 1294.1707467 -1222.75 1293.1875 C-1222.89507265 1291.56627577 -1222.9771001 1289.93930111 -1223.03125 1288.3125 C-1223.08732422 1286.83523438 -1223.08732422 1286.83523438 -1223.14453125 1285.328125 C-1223.21484375 1283.234375 -1223.28515625 1281.140625 -1223.35546875 1279.046875 C-1223.41154297 1277.56960938 -1223.41154297 1277.56960938 -1223.46875 1276.0625 C-1223.49904297 1275.15242188 -1223.52933594 1274.24234375 -1223.56054688 1273.3046875 C-1223.52049759 1271.20324568 -1223.52049759 1271.20324568 -1224.75 1270.1875 C-1224.89552732 1268.42016824 -1224.97722469 1266.64749006 -1225.03125 1264.875 C-1225.06863281 1263.79992188 -1225.10601563 1262.72484375 -1225.14453125 1261.6171875 C-1225.21484375 1259.33072917 -1225.28515625 1257.04427083 -1225.35546875 1254.7578125 C-1225.39285156 1253.68273438 -1225.43023438 1252.60765625 -1225.46875 1251.5 C-1225.49904297 1250.50613281 -1225.52933594 1249.51226563 -1225.56054688 1248.48828125 C-1225.49727559 1246.22466014 -1225.49727559 1246.22466014 -1226.75 1245.1875 C-1226.85052635 1242.41407432 -1226.88615871 1239.66552012 -1226.87939453 1236.89160156 C-1226.88114685 1236.02166565 -1226.88289917 1235.15172974 -1226.88470459 1234.25543213 C-1226.88912623 1231.36297646 -1226.88618301 1228.47058136 -1226.8828125 1225.578125 C-1226.88348569 1223.57371 -1226.88445585 1221.56929509 -1226.88571167 1219.56488037 C-1226.88718926 1215.35476915 -1226.88503302 1211.14467908 -1226.88037109 1206.93457031 C-1226.87468842 1201.53968739 -1226.87794313 1196.14485437 -1226.88394356 1190.7499733 C-1226.88756003 1186.60642116 -1226.88640532 1182.46288081 -1226.88381577 1178.31932831 C-1226.88314874 1176.33062484 -1226.88396708 1174.3419203 -1226.88629532 1172.35321808 C-1226.88883799 1169.56910884 -1226.88495775 1166.78507983 -1226.87939453 1164.00097656 C-1226.88141876 1163.17895752 -1226.88344299 1162.35693848 -1226.88552856 1161.51000977 C-1226.87097706 1157.5741401 -1226.57481063 1154.05146611 -1225.75 1150.1875 C-1226.08 1149.8575 -1226.41 1149.5275 -1226.75 1149.1875 C-1226.90450072 1146.27872692 -1226.98176915 1143.41009941 -1227 1140.5 C-1227.020625 1139.69626953 -1227.04125 1138.89253906 -1227.0625 1138.06445312 C-1227.06765625 1137.27619141 -1227.0728125 1136.48792969 -1227.078125 1135.67578125 C-1227.0874707 1134.95946533 -1227.09681641 1134.24314941 -1227.10644531 1133.50512695 C-1226.75 1131.1875 -1226.75 1131.1875 -1225.25488281 1128.72998047 C-1222.93307573 1123.26446768 -1223.32929368 1117.89682002 -1223.34375 1112.01953125 C-1223.33291382 1110.74776535 -1223.32207764 1109.47599945 -1223.31091309 1108.16569519 C-1223.27085243 1103.42056492 -1223.25686482 1098.67562338 -1223.24468994 1093.93035889 C-1223.23134092 1089.27237608 -1223.19602733 1084.61487898 -1223.15625 1079.95703125 C-1223.15927124 1078.72265823 -1223.16229248 1077.48828522 -1223.16540527 1076.21650696 C-1223.15529419 1075.07489609 -1223.14518311 1073.93328522 -1223.13476562 1072.75708008 C-1223.13271118 1071.75147537 -1223.13065674 1070.74587067 -1223.12854004 1069.70979309 C-1222.68886326 1066.78013288 -1221.93614655 1066.07358416 -1219.75 1064.1875 C-1219.35135272 1061.94016226 -1219.35135272 1061.94016226 -1219.5 1059.5625 C-1219.51546875 1058.76585937 -1219.5309375 1057.96921875 -1219.546875 1057.1484375 C-1219.54195019 1055.18538743 -1219.54195019 1055.18538743 -1220.75 1054.1875 C-1221.07446337 1051.08707227 -1221.26334441 1047.9854275 -1221.46875 1044.875 C-1221.45607799 1042.27153248 -1221.45607799 1042.27153248 -1222.75 1041.1875 C-1222.84909302 1038.85589945 -1222.87970504 1036.52120058 -1222.875 1034.1875 C-1222.87757813 1032.90875 -1222.88015625 1031.63 -1222.8828125 1030.3125 C-1222.75 1027.1875 -1222.75 1027.1875 -1221.75 1026.1875 C-1221.6508944 1024.32114212 -1221.62200739 1022.45101806 -1221.62060547 1020.58203125 C-1221.61587723 1018.78511841 -1221.61587723 1018.78511841 -1221.61105347 1016.9519043 C-1221.6130777 1015.64777588 -1221.61510193 1014.34364746 -1221.6171875 1013 C-1221.6165144 1011.65860985 -1221.61554432 1010.31721981 -1221.61428833 1008.97583008 C-1221.61281164 1006.16128379 -1221.61496496 1003.34676918 -1221.61962891 1000.53222656 C-1221.62532619 996.91709369 -1221.62204703 993.30203505 -1221.61605644 989.68690491 C-1221.61245003 986.91605058 -1221.61358978 984.14521398 -1221.61618423 981.37435913 C-1221.61717967 979.39060417 -1221.61413259 977.40684853 -1221.61105347 975.4230957 C-1221.61420563 974.22515381 -1221.61735779 973.02721191 -1221.62060547 971.79296875 C-1221.62140106 970.73231201 -1221.62219666 969.67165527 -1221.62301636 968.57885742 C-1221.48027721 966.23435057 -1221.48027721 966.23435057 -1222.75 965.1875 C-1222.85820948 963.04155267 -1222.89630494 960.89205174 -1222.90771484 958.7434082 C-1222.91279556 958.07014999 -1222.91787628 957.39689178 -1222.92311096 956.70323181 C-1222.93383747 955.23598356 -1222.94244864 953.76871871 -1222.94923019 952.30144691 C-1222.96099617 949.97668991 -1222.98044526 947.65212064 -1223.00234985 945.32743835 C-1223.06402594 938.7158334 -1223.11792769 932.1042443 -1223.15136719 925.49243164 C-1223.17235648 921.45163317 -1223.20770063 917.41117118 -1223.25212479 913.37056541 C-1223.26625929 911.83209392 -1223.27500147 910.29356282 -1223.27817917 908.75502968 C-1223.28310836 906.59585235 -1223.30631836 904.43756069 -1223.33349609 902.27856445 C-1223.34158295 901.05136185 -1223.3496698 899.82415924 -1223.35800171 898.55976868 C-1223.53963335 895.16531262 -1223.53963335 895.16531262 -1225.25 892.43426514 C-1227.0010431 888.64411467 -1227.13120057 886.0303082 -1227.14199829 881.86698914 C-1227.14793955 881.15203004 -1227.15388081 880.43707095 -1227.16000211 879.70044643 C-1227.17624834 877.31665733 -1227.17135254 874.93339291 -1227.16650391 872.54956055 C-1227.17388646 870.8360281 -1227.18259225 869.12250092 -1227.19252014 867.40898132 C-1227.21581909 862.76476201 -1227.22099104 858.12067639 -1227.22317934 853.47640586 C-1227.22884197 848.61881262 -1227.25211452 843.76130641 -1227.27377319 838.90376282 C-1227.31228181 829.70763898 -1227.33651192 820.51154006 -1227.35489786 811.31535608 C-1227.3883296 794.82661642 -1227.44592697 778.33795111 -1227.50888956 761.84930068 C-1227.53043117 756.0591123 -1227.54567181 750.26894995 -1227.55572915 744.47873056 C-1227.56272354 740.88737604 -1227.57359974 737.29604027 -1227.58537102 733.70469856 C-1227.58994664 732.0328955 -1227.59278058 730.36108667 -1227.59379387 728.68927765 C-1227.59535467 726.41717689 -1227.60290431 724.14517394 -1227.61196899 721.87309265 C-1227.61452509 720.59867152 -1227.61708118 719.32425039 -1227.61971474 718.01121044 C-1227.42773218 715.28517973 -1227.42773218 715.28517973 -1228.75 714.1875 C-1228.84873816 712.18950428 -1228.87971799 710.18792842 -1228.875 708.1875 C-1228.87757813 707.094375 -1228.88015625 706.00125 -1228.8828125 704.875 C-1228.75 702.1875 -1228.75 702.1875 -1227.75 701.1875 C-1227.6516279 699.85706375 -1227.61921408 698.52156656 -1227.6171875 697.1875 C-1227.61589844 696.383125 -1227.61460937 695.57875 -1227.61328125 694.75 C-1227.61908203 693.4815625 -1227.61908203 693.4815625 -1227.625 692.1875 C-1227.62113281 691.341875 -1227.61726563 690.49625 -1227.61328125 689.625 C-1227.61457031 688.820625 -1227.61585938 688.01625 -1227.6171875 687.1875 C-1227.61831543 686.445 -1227.61944336 685.7025 -1227.62060547 684.9375 C-1227.56057784 683.15924189 -1227.56057784 683.15924189 -1228.75 682.1875 C-1228.8828125 680.375 -1228.8828125 680.375 -1228.875 678.1875 C-1228.87757813 677.465625 -1228.88015625 676.74375 -1228.8828125 676 C-1228.75 674.1875 -1228.75 674.1875 -1227.75 673.1875 C-1227.64422464 671.65923641 -1227.60760683 670.12613099 -1227.59851074 668.59423828 C-1227.59016708 667.6014386 -1227.58182343 666.60863892 -1227.57322693 665.58575439 C-1227.56904251 664.48753357 -1227.56485809 663.38931274 -1227.56054688 662.2578125 C-1227.55225357 661.10835144 -1227.54396027 659.95889038 -1227.53541565 658.77459717 C-1227.51797008 656.26948449 -1227.50281576 653.76435508 -1227.48963928 651.25921631 C-1227.46869355 647.30183541 -1227.44166499 643.34453877 -1227.41296387 639.38720703 C-1227.35280286 630.98733951 -1227.3009874 622.58742746 -1227.25 614.1875 C-1227.19094576 604.45859886 -1227.12868044 594.72974068 -1227.05812073 585.00091553 C-1227.03143304 581.08932817 -1227.01068658 577.1777369 -1226.9901123 573.26611328 C-1226.97351729 570.88313597 -1226.95664616 568.50016057 -1226.93945312 566.1171875 C-1226.93526871 565.01896667 -1226.93108429 563.92074585 -1226.92677307 562.78924561 C-1226.91842941 561.79644592 -1226.91008575 560.80364624 -1226.90148926 559.78076172 C-1226.89633553 558.91280975 -1226.89118179 558.04485779 -1226.88587189 557.15060425 C-1226.75 555.1875 -1226.75 555.1875 -1225.75 554.1875 C-1225.60205581 551.24386823 -1225.51489284 548.32074774 -1225.46875 545.375 C-1225.45034058 544.49094482 -1225.43193115 543.60688965 -1225.41296387 542.69604492 C-1225.35401899 539.85993302 -1225.30128081 537.02376024 -1225.25 534.1875 C-1225.18257262 530.45819879 -1225.1089042 526.72910068 -1225.03125 523 C-1225.01767456 522.13334717 -1225.00409912 521.26669434 -1224.9901123 520.3737793 C-1224.86280181 514.30030181 -1224.86280181 514.30030181 -1223.75 513.1875 C-1223.64371842 511.45646316 -1223.60757617 509.7210892 -1223.59851074 507.98681641 C-1223.59016708 506.85939026 -1223.58182343 505.73196411 -1223.57322693 504.57037354 C-1223.56904251 503.32254089 -1223.56485809 502.07470825 -1223.56054688 500.7890625 C-1223.5478169 498.7851308 -1223.53508666 496.78119909 -1223.5223465 494.77726746 C-1223.50957705 492.61687741 -1223.49926735 490.45648776 -1223.48963928 488.29608154 C-1223.46947024 483.80102803 -1223.44181137 479.3060402 -1223.41296387 474.81103516 C-1223.35279777 465.26988746 -1223.30098493 455.72870051 -1223.25 446.1875 C-1223.19496699 435.88875007 -1223.13854479 425.59001998 -1223.07245111 415.29133415 C-1223.04403173 410.81831468 -1223.02046109 406.34530314 -1223.00052643 401.87223816 C-1222.99038433 399.76216109 -1222.97799922 397.65211182 -1222.96458435 395.54205322 C-1222.94820048 392.96293221 -1222.93542189 390.38378501 -1222.92677307 387.80462646 C-1222.91842941 386.67720032 -1222.91008575 385.54977417 -1222.90148926 384.38818359 C-1222.89633553 383.40224213 -1222.89118179 382.41630066 -1222.88587189 381.40048218 C-1222.75 379.1875 -1222.75 379.1875 -1221.75 378.1875 C-1221.65006468 376.1269469 -1221.61919094 374.0629741 -1221.6171875 372 C-1221.61589844 370.74445313 -1221.61460937 369.48890625 -1221.61328125 368.1953125 C-1221.61537598 367.53821289 -1221.6174707 366.88111328 -1221.61962891 366.20410156 C-1221.62497766 364.19588665 -1221.61968309 362.18789541 -1221.61328125 360.1796875 C-1221.61457031 358.92414063 -1221.61585938 357.66859375 -1221.6171875 356.375 C-1221.61831543 355.21355469 -1221.61944336 354.05210937 -1221.62060547 352.85546875 C-1221.44662526 350.26686716 -1221.44662526 350.26686716 -1222.75 349.1875 C-1222.84770201 347.7603638 -1222.87631695 346.3284257 -1222.87698364 344.89794922 C-1222.87980347 343.97246277 -1222.88262329 343.04697632 -1222.88552856 342.09344482 C-1222.88350433 341.07002991 -1222.8814801 340.04661499 -1222.87939453 338.9921875 C-1222.88114685 337.920755 -1222.88289917 336.84932251 -1222.88470459 335.74542236 C-1222.88912553 332.18443203 -1222.88618426 328.62349089 -1222.8828125 325.0625 C-1222.88348547 322.60009756 -1222.88445544 320.13769518 -1222.88571167 317.67529297 C-1222.88718897 312.50682952 -1222.88503305 307.33838332 -1222.88037109 302.16992188 C-1222.8746738 295.52809273 -1222.87795263 288.88630398 -1222.88394356 282.24447632 C-1222.8875483 277.15746758 -1222.88641099 272.0704685 -1222.88381577 266.98345947 C-1222.88314625 264.5337117 -1222.88397575 262.08396307 -1222.88629532 259.63421631 C-1222.88882042 256.2170579 -1222.88498326 252.79996593 -1222.87939453 249.3828125 C-1222.88141876 248.35939758 -1222.88344299 247.33598267 -1222.88552856 246.28155518 C-1222.88270874 245.35606873 -1222.87988892 244.43058228 -1222.87698364 243.47705078 C-1222.87660662 242.66809357 -1222.87622959 241.85913635 -1222.87584114 241.02566528 C-1222.75 239.1875 -1222.75 239.1875 -1221.75 238.1875 C-1221.54111292 236.19146794 -1221.38224523 234.19007059 -1221.25 232.1875 C-1220.86111111 226.29861111 -1220.86111111 226.29861111 -1219.75 225.1875 C-1219.60613896 223.85863927 -1219.52323712 222.52301413 -1219.46875 221.1875 C-1219.43136719 220.383125 -1219.39398437 219.57875 -1219.35546875 218.75 C-1219.32066406 217.904375 -1219.28585937 217.05875 -1219.25 216.1875 C-1219.18139491 214.52065029 -1219.10869777 212.85396226 -1219.03125 211.1875 C-1218.98581055 210.07375 -1218.98581055 210.07375 -1218.93945312 208.9375 C-1218.75 207.1875 -1218.75 207.1875 -1217.75 206.1875 C-1217.54111292 204.19146794 -1217.38224523 202.19007059 -1217.25 200.1875 C-1216.86111111 194.29861111 -1216.86111111 194.29861111 -1215.75 193.1875 C-1215.62901073 191.62419133 -1215.57041303 190.05595135 -1215.5390625 188.48828125 C-1215.49652344 187.04485352 -1215.49652344 187.04485352 -1215.453125 185.57226562 C-1215.40154272 183.54379253 -1215.35712796 181.51512295 -1215.3203125 179.48632812 C-1215.14279775 173.92789759 -1214.69195298 170.05564214 -1211.75 165.1875 C-1211.399375 163.95 -1211.04875 162.7125 -1210.6875 161.4375 C-1209.75 158.1875 -1209.75 158.1875 -1207.75 156.1875 C-1207.40929591 153.91470185 -1207.30858171 151.67327736 -1207.19140625 149.37890625 C-1206.65565427 146.71911101 -1205.62735651 146.06485651 -1203.75 144.1875 C-1203.2859848 142.0124772 -1203.2859848 142.0124772 -1203.25 139.6875 C-1203.08452275 135.55056869 -1203.08452275 135.55056869 -1201.28515625 133.59765625 C-1200.77855469 133.13230469 -1200.27195312 132.66695312 -1199.75 132.1875 C-1199.05899447 130.19577818 -1198.39097297 128.19588196 -1197.75 126.1875 C-1196.76 125.1975 -1196.76 125.1975 -1195.75 124.1875 C-1195.29188325 122.21514667 -1195.29188325 122.21514667 -1195.125 120.0625 C-1194.939375 118.144375 -1194.939375 118.144375 -1194.75 116.1875 C-1193.43 116.1875 -1192.11 116.1875 -1190.75 116.1875 C-1190.75 113.5475 -1190.75 110.9075 -1190.75 108.1875 C-1189.43 108.1875 -1188.11 108.1875 -1186.75 108.1875 C-1186.894375 107.506875 -1187.03875 106.82625 -1187.1875 106.125 C-1186.57859978 102.03666995 -1184.37583068 100.67292171 -1181.41796875 97.9453125 C-1179.21242153 95.62096531 -1178.71480292 93.21054916 -1177.75 90.1875 C-1176.31449579 88.62112361 -1174.81384351 87.24112854 -1173.1875 85.875 C-1171.53492107 84.16677423 -1171.53492107 84.16677423 -1170.9140625 81.3515625 C-1169.6415562 77.89273666 -1168.35342392 76.37165891 -1165.6875 73.875 C-1164.89085937 73.10929687 -1164.09421875 72.34359375 -1163.2734375 71.5546875 C-1161.59114583 69.9765625 -1159.90885417 68.3984375 -1158.2265625 66.8203125 C-1157.42992187 66.05460937 -1156.63328125 65.28890625 -1155.8125 64.5 C-1154.71615234 63.47326172 -1154.71615234 63.47326172 -1153.59765625 62.42578125 C-1151.43610778 59.80724579 -1150.73329419 57.41076481 -1149.75 54.1875 C-1148.76 53.1975 -1148.76 53.1975 -1147.75 52.1875 C-1147.1074765 50.11875966 -1147.1074765 50.11875966 -1146.75 48.1875 C-1145.43 48.1875 -1144.11 48.1875 -1142.75 48.1875 C-1142.75 46.8675 -1142.75 45.5475 -1142.75 44.1875 C-1141.96625 43.89875 -1141.1825 43.61 -1140.375 43.3125 C-1137.65328368 42.33837746 -1137.65328368 42.33837746 -1135.75 40.1875 C-1133.42684969 39.4861716 -1131.09210921 38.82264826 -1128.75 38.1875 C-1127.96625 37.81625 -1127.1825 37.445 -1126.375 37.0625 C-1122.51957816 35.77735939 -1118.77794704 36.02954129 -1114.75 36.1875 C-1114.45055395 39.24184969 -1114.32365785 42.14146509 -1114.75 45.1875 C-1117.125 47.9375 -1117.125 47.9375 -1119.75 50.1875 C-1122.16677045 54.53768681 -1122.34610988 59.30893246 -1122.75 64.1875 C-1121.70199219 63.754375 -1121.70199219 63.754375 -1120.6328125 63.3125 C-1119.72273438 62.94125 -1118.81265625 62.57 -1117.875 62.1875 C-1116.97007812 61.81625 -1116.06515625 61.445 -1115.1328125 61.0625 C-1112.75 60.1875 -1112.75 60.1875 -1110.75 60.1875 C-1110.42 59.1975 -1110.09 58.2075 -1109.75 57.1875 C-1108.11021682 56.14400161 -1106.43535024 55.15567992 -1104.75 54.1875 C-1102.64967275 52.61828999 -1100.58092587 51.01447999 -1098.51953125 49.39453125 C-1096.75 48.1875 -1096.75 48.1875 -1094.75 48.1875 C-1094.42 47.1975 -1094.09 46.2075 -1093.75 45.1875 C-1091.275 44.6925 -1091.275 44.6925 -1088.75 44.1875 C-1088.75 43.5275 -1088.75 42.8675 -1088.75 42.1875 C-1085.66190305 40.42287317 -1084.51687864 40.1875 -1080.75 40.1875 C-1080.75 39.5275 -1080.75 38.8675 -1080.75 38.1875 C-1079.93595703 37.78917969 -1079.93595703 37.78917969 -1079.10546875 37.3828125 C-1078.03232422 36.85300781 -1078.03232422 36.85300781 -1076.9375 36.3125 C-1076.22980469 35.96445312 -1075.52210938 35.61640625 -1074.79296875 35.2578125 C-1072.53753582 34.1218514 -1072.53753582 34.1218514 -1069.75 32.1875 C-1067.0625 32.0625 -1067.0625 32.0625 -1064.75 32.1875 C-1064.75 31.5275 -1064.75 30.8675 -1064.75 30.1875 C-1061.1058226 27.7580484 -1059.03758728 28.02570425 -1054.75 28.1875 C-1054.42 27.1975 -1054.09 26.2075 -1053.75 25.1875 C-1050.79335481 23.7091774 -1048.00770263 24.12717217 -1044.75 24.1875 C-1044.75 23.5275 -1044.75 22.8675 -1044.75 22.1875 C-1041.66111478 20.12824319 -1041.04064073 19.9484626 -1037.5625 20.0625 C-1036.304375 20.10375 -1035.04625 20.145 -1033.75 20.1875 C-1033.42 19.1975 -1033.09 18.2075 -1032.75 17.1875 C-1030.34454362 15.98477181 -1028.80003047 16.08678528 -1026.125 16.125 C-1024.89910156 16.13853516 -1024.89910156 16.13853516 -1023.6484375 16.15234375 C-1023.02195312 16.16394531 -1022.39546875 16.17554688 -1021.75 16.1875 C-1021.75 15.1975 -1021.75 14.2075 -1021.75 13.1875 C-1020.61111328 13.02314453 -1020.61111328 13.02314453 -1019.44921875 12.85546875 C-1018.45535156 12.69691406 -1017.46148438 12.53835938 -1016.4375 12.375 C-1015.45136719 12.22417969 -1014.46523438 12.07335937 -1013.44921875 11.91796875 C-1010.733226 11.44479293 -1010.733226 11.44479293 -1009.38232422 9.66943359 C-1007.19614237 7.68467083 -1005.85401263 7.79224781 -1002.93359375 7.74609375 C-1002.00482422 7.71966797 -1001.07605469 7.69324219 -1000.11914062 7.66601562 C-998.66797852 7.64571289 -998.66797852 7.64571289 -997.1875 7.625 C-995.26935782 7.59063382 -993.35133957 7.54806879 -991.43359375 7.49609375 C-990.58337646 7.48376709 -989.73315918 7.47144043 -988.85717773 7.45874023 C-986.53283523 7.37769859 -986.53283523 7.37769859 -984.75 5.1875 C-981.29870089 3.94913979 -977.8958997 4.06074811 -974.25910932 4.05804014 C-973.60483166 4.05619186 -972.950554 4.05434358 -972.27644974 4.05243929 C-970.07039997 4.04743399 -967.86441417 4.049567 -965.65836048 4.05162811 C-964.05942533 4.04948482 -962.46049072 4.04690382 -960.86155692 4.0439232 C-956.44069309 4.03696084 -952.01984641 4.03624912 -947.59897792 4.03649596 C-942.79971865 4.03567003 -938.00046688 4.02907322 -933.20121163 4.02318525 C-924.78101678 4.01365281 -916.3608256 4.00782209 -907.94062614 4.00437737 C-895.41994731 3.99923195 -882.89927803 3.98838296 -870.3786042 3.97629793 C-849.31889067 3.9561134 -828.25917607 3.94042813 -807.19945717 3.92713928 C-778.44998568 3.90893788 -749.7005224 3.8842303 -720.95105746 3.85776538 C-707.56849535 3.84545495 -694.18593295 3.83346188 -680.80337048 3.82155609 C-679.79896284 3.82066183 -679.79896284 3.82066183 -678.77426413 3.8197495 C-646.8972036 3.79138457 -615.02014083 3.76603562 -583.14307723 3.74138199 C-581.02755605 3.73974569 -578.91203488 3.73810788 -576.79651371 3.73646974 C-554.84220011 3.71947288 -532.88788638 3.70265692 -510.93357262 3.68587239 C-489.68804145 3.66962952 -468.44251031 3.6533377 -447.1969793 3.63689168 C-445.08135425 3.63525433 -442.9657292 3.63361848 -440.85010415 3.6319828 C-408.99548476 3.60734404 -377.14086643 3.58180699 -345.28625011 3.55344391 C-344.61717416 3.55284863 -343.94809821 3.55225335 -343.25874723 3.55164003 C-329.232929 3.53915679 -315.20711093 3.52650056 -301.18129309 3.51358688 C-272.45815403 3.48717598 -243.73501642 3.46353104 -215.01187086 3.44541349 C-194.08014162 3.43216899 -173.14841749 3.41553664 -152.2166938 3.39531839 C-139.76377867 3.38341112 -127.31086873 3.37436232 -114.85794891 3.36927242 C-106.55604655 3.36561196 -98.2541524 3.35838938 -89.95225551 3.3481881 C-85.21147698 3.34247024 -80.47071166 3.33839512 -75.72992937 3.33865923 C-71.42711139 3.33887092 -67.12432352 3.33458744 -62.82151328 3.32653805 C-61.26504273 3.32444759 -59.70856881 3.32407436 -58.15209753 3.32552151 C-56.05630914 3.3272338 -53.96062162 3.32291858 -51.86484319 3.31695986 C-50.69915906 3.31609173 -49.53347493 3.31522361 -48.33246704 3.31432918 C-45.81929495 3.48065168 -45.81929495 3.48065168 -44.75 2.1875 C-30.15573956 -0.30190424 -14.74205016 0.08615421 0 0 Z M183.25 72.1875 C183.7479837 75.92237777 184.12491756 77.99987635 186.25 81.1875 C186.91 81.1875 187.57 81.1875 188.25 81.1875 C188.91 82.5075 189.57 83.8275 190.25 85.1875 C190.91 85.1875 191.57 85.1875 192.25 85.1875 C192.58 86.1775 192.91 87.1675 193.25 88.1875 C194.57 88.1875 195.89 88.1875 197.25 88.1875 C197.86001977 83.91736161 198.14804413 81.50999285 195.6796875 77.875 C192.46334835 74.4507606 190.489565 72.36458071 185.75 71.6875 C184.925 71.8525 184.1 72.0175 183.25 72.1875 Z M204.25 100.1875 C204.04029441 104.32843698 204.04029441 104.32843698 205.25 108.1875 C206.57 108.1875 207.89 108.1875 209.25 108.1875 C208.89950425 104.94541433 208.68778819 103.57222296 206.1875 101.375 C205.548125 100.983125 204.90875 100.59125 204.25 100.1875 Z M-1164.3828125 109.32421875 C-1168.18111706 113.27167139 -1170.62265007 116.32212648 -1170.875 122 C-1170.813125 123.0828125 -1170.813125 123.0828125 -1170.75 124.1875 C-1168.46163778 124.60736946 -1168.46163778 124.60736946 -1165.75 124.1875 C-1160.78433425 119.98605414 -1160.78433425 119.98605414 -1158.5546875 114.14453125 C-1158.57789063 113.43683594 -1158.60109375 112.72914063 -1158.625 112 C-1158.686875 110.1128125 -1158.686875 110.1128125 -1158.75 108.1875 C-1162.53445065 107.80659861 -1162.53445065 107.80659861 -1164.3828125 109.32421875 Z " fill="#FAFAF9" transform="translate(1492.75,305.8125)"></path>
<path d="M0 0 C5.23654245 1.97497141 8.9050993 5.35764895 12 10 C12.35811779 10.5329478 12.71623559 11.0658956 13.08520544 11.61499333 C14.46496936 15.21224489 14.27858012 18.79803302 14.26171303 22.59760666 C14.26570909 23.47848798 14.26970515 24.3593693 14.27382231 25.26694399 C14.28485252 28.23944037 14.28158742 31.21175232 14.2784729 34.18426514 C14.28347259 36.3284909 14.28934741 38.47271477 14.29602563 40.61693597 C14.31187924 46.52532496 14.31525926 52.43366646 14.31667423 58.34207416 C14.32035895 64.70744869 14.33550973 71.07279689 14.34928894 77.43815613 C14.37159485 88.47196952 14.38665743 99.50577308 14.39665604 110.53960419 C14.40717449 122.11373624 14.42180227 133.68785104 14.44193649 145.26197052 C14.44318536 145.98120954 14.44443423 146.70044856 14.44572094 147.4414827 C14.45208456 151.09403028 14.45852177 154.74657773 14.46498732 158.39912513 C14.51066828 184.28023458 14.54710809 210.16134964 14.578125 236.04248047 C14.60828144 261.18799663 14.64261647 286.3335014 14.68261719 311.47900391 C14.68384819 312.25389282 14.68507919 313.02878173 14.6863475 313.82715213 C14.6987142 321.60879834 14.71116593 329.3904444 14.72367998 337.17209037 C14.74917135 353.0246586 14.77409503 368.8772277 14.79867554 384.72979736 C14.79980645 385.45869695 14.80093736 386.18759655 14.80210253 386.938584 C14.87757695 435.62570954 14.93977626 484.31285347 15 533 C15.74693115 532.31945557 16.4938623 531.63891113 17.26342773 530.93774414 C18.25763215 530.03269552 19.25185514 529.1276673 20.24609375 528.22265625 C21.2198999 527.33586182 22.19370605 526.44906738 23.19702148 525.53540039 C26.09726034 522.91202434 29.03105976 520.33267273 31.984375 517.76953125 C34.28607764 515.74885044 36.54764379 513.68687382 38.8125 511.625 C42.35160002 508.42347567 45.97103106 505.36853937 49.6875 502.375 C52.78591453 499.87026769 55.73296947 497.3660889 58.5 494.5 C61.18967565 491.71494578 64.03968272 489.29501384 67.0625 486.875 C72.89785419 482.18099608 78.33116508 477.11536098 83.79296875 471.99609375 C88.4639332 467.61883286 93.29747541 463.4485711 98.171875 459.30078125 C104.50812712 453.90186534 110.76745389 448.44815313 116.87963867 442.79614258 C120.18447165 439.74018591 123.54068703 436.75682642 126.94140625 433.80859375 C129.4895665 431.5698875 131.99410593 429.28589788 134.5 427 C138.26350521 423.56735239 142.06129351 420.1844499 145.90625 416.84375 C148.46419027 414.59123543 150.9817898 412.29682908 153.5 410 C157.28662998 406.54671847 161.1047632 403.13900949 164.97265625 399.77734375 C167.33489173 397.70640513 169.66795853 395.60487152 172 393.5 C175.61676345 390.23609152 179.26389608 387.01209051 182.9375 383.8125 C185.30964429 381.72788836 187.65556065 379.61571356 190 377.5 C193.61676345 374.23609152 197.26389608 371.01209051 200.9375 367.8125 C203.30964429 365.72788836 205.65556065 363.61571356 208 361.5 C211.61281436 358.23965533 215.25172863 355.01469665 218.9296875 351.828125 C220.47467674 350.46387035 221.99727548 349.0741804 223.5078125 347.671875 C224.37148438 346.87265625 225.23515625 346.0734375 226.125 345.25 C226.91132812 344.51265625 227.69765625 343.7753125 228.5078125 343.015625 C233.9447852 338.61832419 238.41025677 337.42300971 245.26171875 337.6640625 C252.85262584 338.59532928 257.23496187 342.70117072 262.0234375 348.4140625 C264.74261548 351.97156413 267.17528134 355.680946 269.609375 359.4375 C272.53200551 363.87007096 275.71148564 368.11282048 278.875 372.375 C282.96304683 377.88506999 287.03351144 383.40166522 291 389 C296.6268124 396.92805529 302.41465972 404.73629553 308.19433594 412.55322266 C309.94956869 414.93166272 311.69857348 417.31453593 313.4453125 419.69921875 C320.18959281 428.89937521 327.0274798 438.0204439 333.95947266 447.08007812 C338.59929684 453.14693691 343.18470395 459.251939 347.75 465.375 C353.10808527 472.55073305 358.60735593 479.58876357 364.234375 486.5546875 C366.89423404 489.85269074 369.48836894 493.19734667 372.0625 496.5625 C384.03412441 512.19245113 396.4027582 527.47272166 409.16577148 542.46459961 C412.01308934 545.81379611 414.79998975 549.20566913 417.5625 552.625 C421.43812933 557.38807218 425.51234289 561.93364249 429.66796875 566.453125 C431.62405252 568.58941749 433.54187697 570.74780657 435.4375 572.9375 C438.82607952 576.83635973 442.3171753 580.63847682 445.81445312 584.43945312 C448.7095317 587.587308 451.58361008 590.75212378 454.4375 593.9375 C455.9573305 595.62590325 457.47821659 597.31335672 459 599 C459.8559375 599.95003906 460.711875 600.90007813 461.59375 601.87890625 C467.64627483 608.54421078 473.89453983 614.99801359 480.25 621.375 C480.99435303 622.12394531 481.73870605 622.87289062 482.50561523 623.64453125 C486.61967741 627.74716674 490.82513364 631.68003082 495.22705078 635.47216797 C497.4613425 637.39756009 499.63571815 639.3850173 501.8125 641.375 C529.95695845 666.73075449 562.49668977 689.85330154 599 701 C599.87914062 701.29648438 600.75828125 701.59296875 601.6640625 701.8984375 C630.99067159 711.54660531 662.81519193 705.74936251 689.84863281 692.21508789 C713.92900432 679.57704905 734.18807288 660.84848444 753.3125 641.8125 C754.16102539 640.96872803 755.00955078 640.12495605 755.88378906 639.25561523 C760.79516475 634.33118252 765.4952855 629.29811402 770 624 C770.45995361 623.46705322 770.91990723 622.93410645 771.39379883 622.38500977 C792.39095137 598.04428678 811.41024975 571.88382429 829 545 C829.5259375 544.19804199 830.051875 543.39608398 830.59375 542.56982422 C834.42078666 536.7292235 838.21857218 530.87021652 842 525 C842.49999512 524.22575684 842.99999023 523.45151367 843.51513672 522.65380859 C857.02078517 501.69400403 869.24222622 479.99861787 881.25976562 458.16015625 C882.83962918 455.29122333 884.42668454 452.42641138 886.015625 449.5625 C908.93104895 408.10485439 929.92174423 365.39908854 949.16210938 322.12158203 C951.17778948 317.59205775 953.22223391 313.0756664 955.265625 308.55859375 C963.32695402 290.71298789 971.13036673 272.80200865 978.50341797 254.65966797 C980.07851297 250.80800825 981.67880454 246.96759368 983.28515625 243.12890625 C990.77625659 225.18802781 997.85872024 207.11962857 1004.67089844 188.90942383 C1005.15950851 187.60992043 1005.15950851 187.60992043 1005.6579895 186.28416443 C1006.26406926 184.67146379 1006.86664734 183.0574404 1007.46481323 181.44178772 C1012.8616397 167.09988668 1012.8616397 167.09988668 1018.0625 163.5625 C1018.73410156 163.08941406 1019.40570312 162.61632812 1020.09765625 162.12890625 C1024.54633917 159.48892809 1028.98346489 159.32958747 1034 160 C1039.64873293 161.86617399 1045.03768142 164.60255593 1048.2265625 169.79296875 C1051.77641419 179.92259605 1048.09877462 190.654213 1043.73828125 199.86328125 C1040.86831841 206.12710979 1038.48830974 212.55012787 1036.12454224 219.01663208 C1030.98264262 233.05139484 1025.39370361 246.84089582 1019.47119141 260.56591797 C1016.97667872 266.38865534 1014.54362939 272.23704755 1012.10321045 278.08261108 C1007.5008829 289.09952114 1002.85758378 300.09282962 998 311 C997.00642167 313.23563764 996.01294183 315.47131906 995.01953125 317.70703125 C993.40574253 321.33889915 991.79105533 324.970356 990.17358398 328.60058594 C989.43023804 330.26976074 989.43023804 330.26976074 988.671875 331.97265625 C988.2294043 332.96531494 987.78693359 333.95797363 987.33105469 334.98071289 C986.38772451 337.12050824 985.46097561 339.26764852 984.54589844 341.41967773 C982.96351371 345.08450276 981.29763929 348.7032394 979.59375 352.3125 C979.27307053 352.9941925 978.95239105 353.67588501 978.62199402 354.37823486 C977.58276451 356.58616941 976.54159323 358.79317964 975.5 361 C975.14007965 361.76308472 974.7801593 362.52616943 974.40933228 363.31237793 C972.5943049 367.16017763 970.77777814 371.00726394 968.95947266 374.85351562 C967.7983512 377.30964587 966.63909906 379.76660977 965.48193359 382.22460938 C953.25020835 408.20623014 940.60880301 434.09928917 926.58105469 459.16308594 C924.73938109 462.46763307 922.91940509 465.78387495 921.1015625 469.1015625 C913.57144816 482.83400393 905.96754879 496.51494818 898 510 C897.62891113 510.6290625 897.25782227 511.258125 896.87548828 511.90625 C894.68024568 515.61840229 892.45822041 519.31341565 890.21630859 522.99755859 C889.38527273 524.36571519 888.55762229 525.73593239 887.73291016 527.10791016 C880.05179559 539.87240371 871.89180549 552.29768289 863.625 564.6875 C863.10308075 565.46999115 862.5811615 566.2524823 862.04342651 567.0586853 C856.45076344 575.43564925 850.82751701 583.78381527 845 592 C844.19518251 593.14704422 843.39048305 594.29417128 842.5859375 595.44140625 C824.55065168 620.90111184 804.99794517 646.42678368 782.66796875 668.296875 C780.91370086 670.0881181 779.30492511 671.95972738 777.6875 673.875 C774.30568826 677.79038648 770.59467836 681.18626225 766.7109375 684.59765625 C763.8961201 687.09205495 761.17253333 689.66857813 758.4375 692.25 C738.24261935 710.95558267 714.61317148 726.0149773 689.08105469 736.171875 C687.37413711 736.85111766 685.67428798 737.54809799 683.9765625 738.25 C668.39081989 744.38838478 651.98241444 746.17927036 635.375 746.1875 C634.09753906 746.19974609 632.82007813 746.21199219 631.50390625 746.22460938 C610.00044528 746.25728941 588.76572042 741.34958151 569 733 C568.19546387 732.66935547 567.39092773 732.33871094 566.56201172 731.99804688 C545.78508883 723.38884626 526.98474116 711.42424113 509 698 C508.03964844 697.30132813 507.07929687 696.60265625 506.08984375 695.8828125 C500.14234452 691.51224106 494.39080183 686.93275185 488.6875 682.25 C488.04901123 681.72631836 487.41052246 681.20263672 486.75268555 680.66308594 C484.48915433 678.79008672 482.24439739 676.89589247 480 675 C479.49946106 674.58344147 478.99892212 674.16688293 478.48321533 673.73770142 C467.4508603 664.53821142 457.27982866 654.55763451 447.16308594 644.36889648 C444.48172845 641.66910282 441.79227435 638.97757724 439.1015625 636.28710938 C437.3693167 634.54995266 435.63752925 632.81233875 433.90625 631.07421875 C433.11448364 630.28133957 432.32271729 629.48846039 431.50695801 628.67155457 C427.35507138 624.48443863 423.35055481 620.22272883 419.51034546 615.7472229 C417.12575081 612.98863654 414.61936298 610.34641873 412.125 607.6875 C407.60690661 602.83650931 403.35301793 597.84040724 399.203125 592.66796875 C396.93072182 589.91610462 394.55305169 587.30261857 392.125 584.6875 C387.90411342 580.10184544 384.05226644 575.32970518 380.24658203 570.40307617 C376.95171225 566.1573418 373.5247528 562.05627667 370 558 C365.58433273 552.90968737 361.35044621 547.71427207 357.21704102 542.39282227 C353.68788766 537.85407739 350.07712926 533.38800085 346.4375 528.9375 C342.11136943 523.64023599 337.87107073 518.29222024 333.72924805 512.84985352 C331.11994253 509.42955471 328.45191893 506.06464494 325.74462891 502.72143555 C320.05117541 495.68785359 314.621335 488.49472787 309.28222656 481.18896484 C305.41922119 475.90782707 301.49244945 470.6838625 297.5 465.5 C291.13549451 457.22536953 284.94210542 448.83068895 278.77050781 440.41162109 C277.00501917 438.00683665 275.23401838 435.60622214 273.4609375 433.20703125 C267.11105645 424.61317425 260.80471873 415.99103551 254.57128906 407.31225586 C250.64807246 401.86083789 246.62125868 396.49965216 242.51171875 391.1875 C241 389 241 389 241 387 C234.0061961 392.57576886 227.32481397 398.36815225 220.76953125 404.4453125 C218.54081607 406.50113722 216.29232081 408.51616957 214 410.5 C210.60949156 413.43844065 207.30033018 416.46116302 204 419.5 C200.04410817 423.14167889 196.05438376 426.734995 191.9921875 430.2578125 C189.63979365 432.31500399 187.31965034 434.40596915 185 436.5 C179.58736451 441.38037935 174.11239542 446.18201109 168.58984375 450.9375 C161.50349869 457.0468606 154.50896939 463.22886273 147.63671875 469.578125 C144.79590543 472.18746464 141.90606424 474.73084055 138.9921875 477.2578125 C136.63979365 479.31500399 134.31965034 481.40596915 132 483.5 C128.38323655 486.76390848 124.73610392 489.98790949 121.0625 493.1875 C118.69035571 495.27211164 116.34443935 497.38428644 114 499.5 C110.37567842 502.77072923 106.72116822 506.0016922 103.0390625 509.20703125 C100.79710187 511.17841043 98.58614197 513.18162691 96.375 515.1875 C92.35081482 518.82284521 88.25488227 522.36133312 84.125 525.875 C78.51911806 530.64806895 73.06391376 535.55930373 67.65625 540.5546875 C63.11277737 544.73735495 58.44524365 548.76682313 53.75 552.77734375 C52.5415746 553.80978808 51.33324381 554.84234316 50.125 555.875 C49.51849609 556.39336426 48.91199219 556.91172852 48.28710938 557.44580078 C43.87456133 561.22679992 39.53476449 565.08031557 35.23046875 568.984375 C32.52203531 571.43192606 29.77680541 573.83430427 27.01953125 576.2265625 C25.52433695 577.5395571 24.04488349 578.87052487 22.57421875 580.2109375 C21.76597656 580.94570313 20.95773437 581.68046875 20.125 582.4375 C19.38507813 583.11683594 18.64515625 583.79617188 17.8828125 584.49609375 C16 586 16 586 14 586 C13.99267737 631.5358944 13.99255726 677.07178556 14.0319519 722.60766602 C14.0325333 723.28213112 14.03311469 723.95659623 14.03371371 724.65149967 C14.04639495 739.31114932 14.06040742 753.97079741 14.07579029 768.63044447 C14.08332648 775.82003565 14.09056865 783.00962711 14.09765625 790.19921875 C14.09836654 790.9146511 14.09907683 791.63008345 14.09980864 792.36719556 C14.12267339 815.53624025 14.12614113 838.70523826 14.11949802 861.8742917 C14.11277144 885.69312919 14.12571752 909.51187753 14.16324616 933.33068835 C14.16854356 936.69865889 14.17361721 940.06662974 14.17855453 943.43460083 C14.17953315 944.09743429 14.18051176 944.76026776 14.18152003 945.44318708 C14.19760147 956.7485566 14.18943032 968.05378151 14.17559664 979.35914814 C14.16498231 989.42132835 14.1764583 999.48333352 14.20516153 1009.54547775 C14.22106581 1015.34796332 14.22736812 1021.15003227 14.20739174 1026.95251465 C14.18929057 1032.27298571 14.19915258 1037.59267115 14.23053883 1042.91307366 C14.23703876 1044.82989316 14.23358966 1046.74678008 14.21874608 1048.66355312 C14.09393024 1066.08029915 17.85017281 1081.94883681 30.0234375 1095.203125 C44.65748085 1109.04471113 60.12286515 1111.46025375 79.3650465 1111.37358761 C81.22328967 1111.37630429 83.0815313 1111.38033795 84.93976912 1111.38556191 C90.04342111 1111.3961146 95.14689888 1111.3880418 100.25054339 1111.37693234 C105.80392479 1111.36817261 111.35728323 1111.37688444 116.9106639 1111.3834005 C126.64276418 1111.39243542 136.37481326 1111.39041176 146.10691261 1111.38115883 C160.57865091 1111.36747614 175.05035765 1111.37102524 189.52209714 1111.37832329 C213.12113148 1111.39005096 236.7201498 1111.38918339 260.31918489 1111.3809094 C285.17986065 1111.37221073 310.040518 1111.37111014 334.90119362 1111.38105965 C335.65043585 1111.38135824 336.39967807 1111.38165684 337.17162461 1111.38196448 C345.54350533 1111.38532458 353.91538592 1111.38894814 362.28726647 1111.39268685 C377.77091902 1111.39959854 393.25457196 1111.40552591 408.73822498 1111.41126347 C409.90024224 1111.41169644 409.90024224 1111.41169644 411.08573459 1111.41213816 C447.94827188 1111.42583483 484.81080902 1111.43094961 521.67334858 1111.43365757 C524.11901812 1111.43383794 526.56468766 1111.43402397 529.0103572 1111.43421107 C565.04978058 1111.43694422 601.08920377 1111.43784474 637.12862722 1111.43678741 C651.02788208 1111.4363809 664.92713694 1111.43608129 678.82639181 1111.43583557 C681.27206862 1111.43579103 683.71774544 1111.43574157 686.16342226 1111.43569169 C722.99966882 1111.43497855 759.83591034 1111.43756838 796.67215443 1111.4519434 C797.83325777 1111.45239405 797.83325777 1111.45239405 799.01781775 1111.45285381 C814.48253465 1111.45887726 829.94725124 1111.46547581 845.41196738 1111.47320702 C853.77472939 1111.47738694 862.13749147 1111.48136334 870.50025368 1111.48512459 C871.24841697 1111.48546367 871.99658026 1111.48580275 872.76741517 1111.48615211 C896.87510346 1111.49695327 920.98276529 1111.49367072 945.09045273 1111.48254473 C969.36373643 1111.47135469 993.63698618 1111.47187906 1017.91026728 1111.48925869 C1032.97372115 1111.50001293 1048.0370904 1111.49981435 1063.10054065 1111.48156137 C1072.70271382 1111.47100513 1082.30481069 1111.47482029 1091.90697677 1111.4904648 C1097.38376189 1111.49896288 1102.86034703 1111.5010291 1108.33712133 1111.48554879 C1113.31709913 1111.47158855 1118.29670867 1111.4759344 1123.27666638 1111.49502468 C1125.06923518 1111.49865893 1126.86183319 1111.4955577 1128.65437445 1111.48497675 C1147.62044745 1111.38060161 1147.62044745 1111.38060161 1155.15625 1117.8515625 C1155.5996875 1118.43679688 1156.043125 1119.02203125 1156.5 1119.625 C1157.19609375 1120.51058594 1157.19609375 1120.51058594 1157.90625 1121.4140625 C1161.29078059 1126.32163185 1160.57673947 1132.27284296 1160 1138 C1158.19281509 1143.32021727 1154.5511958 1147.120452 1149.77457749 1149.96817487 C1143.27323887 1152.38592842 1135.87321493 1151.67570501 1129.02455235 1151.62641239 C1127.15974422 1151.63132586 1125.29494081 1151.63843048 1123.43014839 1151.64752635 C1118.28947636 1151.66621115 1113.14927738 1151.65365567 1108.00861861 1151.63613641 C1102.42203492 1151.62257898 1096.83551975 1151.63795703 1091.24894232 1151.64968723 C1081.45210591 1151.6662303 1071.65541 1151.66411026 1061.85857201 1151.64986038 C1051.34640942 1151.63461181 1040.83432165 1151.62996151 1030.32215118 1151.63871193 C1029.65818436 1151.63925731 1028.99421753 1151.63980269 1028.3101305 1151.6403646 C1025.60587744 1151.6426226 1022.90162447 1151.64495916 1020.19737157 1151.64739507 C995.00656837 1151.670077 969.81582247 1151.66825143 944.62501717 1151.65091133 C920.34079384 1151.63421469 896.05659664 1151.62611024 871.77236748 1151.6301403 C870.24763283 1151.63038067 868.72289819 1151.63061986 867.19816354 1151.63085788 C861.0708856 1151.63182666 854.94360768 1151.63284908 848.81632976 1151.63394299 C831.68685366 1151.63697185 814.55737763 1151.63829471 797.42790127 1151.63831234 C796.64781389 1151.63831361 795.86772652 1151.63831487 795.06400013 1151.63831618 C770.20184547 1151.63823605 745.33969889 1151.63068197 720.47754765 1151.61790562 C719.67102606 1151.61749193 718.86450448 1151.61707824 718.03354285 1151.61665202 C704.93601704 1151.60990838 691.83849146 1151.60275471 678.74096588 1151.59557279 C626.8167979 1151.56712748 574.89267927 1151.56114061 522.96850586 1151.57641602 C519.68860835 1151.57737545 516.40871084 1151.57833246 513.12881333 1151.57928873 C511.91239466 1151.57964343 511.91239466 1151.57964343 510.67140187 1151.5800053 C501.69024939 1151.58261817 492.7090969 1151.58515074 483.72794437 1151.5875864 C482.51982232 1151.58791613 482.51982232 1151.58791613 481.28729376 1151.58825251 C456.45927369 1151.59497711 431.63125766 1151.59669376 406.80323696 1151.59282589 C405.63378212 1151.5926437 405.63378212 1151.5926437 404.44070192 1151.59245784 C387.32475565 1151.58972946 370.20880986 1151.58566617 353.09286418 1151.58041219 C346.96820939 1151.57853385 340.84355458 1151.5767074 334.71889976 1151.57488665 C332.43467315 1151.57420239 330.15044654 1151.57350086 327.86621993 1151.57279913 C311.16577299 1151.56774642 294.46533149 1151.5654177 277.76488423 1151.57023358 C277.01274524 1151.57045026 276.26060624 1151.57066694 275.48567516 1151.57089019 C271.69888111 1151.57199899 267.91208709 1151.57315797 264.12529307 1151.57433859 C236.73756574 1151.58287216 209.34989267 1151.57864968 181.96217562 1151.5515715 C179.26160325 1151.54895693 176.56103084 1151.54640348 173.86045837 1151.54389763 C173.19770297 1151.54327648 172.53494757 1151.54265532 171.85210867 1151.54201535 C160.7373864 1151.53197295 149.62271697 1151.53765286 138.50799715 1151.5475062 C128.83143845 1151.55496916 119.15496089 1151.54787189 109.478418 1151.52894809 C103.96564585 1151.51856778 98.45306766 1151.51442518 92.94029785 1151.52792663 C87.91824256 1151.54008999 82.89655744 1151.53363671 77.87453393 1151.51276654 C76.07569966 1151.50846948 74.27683345 1151.51075407 72.47802155 1151.52070096 C44.07384625 1151.66619357 20.26740451 1142.01157472 0 1122 C-15.86935512 1106.1581481 -25.31649187 1082.95625502 -26.12656184 1060.4899635 C-26.12730082 1059.18075673 -26.1280398 1057.87154997 -26.12880117 1056.52267027 C-26.13057618 1055.78590402 -26.13235119 1055.04913777 -26.13417998 1054.29004527 C-26.13892063 1051.8148838 -26.13654681 1049.33978058 -26.13422108 1046.86461639 C-26.1361742 1045.06703383 -26.13856312 1043.26945171 -26.14134905 1041.47187024 C-26.14775704 1036.50874399 -26.14791003 1031.54563391 -26.14707164 1026.58250431 C-26.14724098 1021.19187369 -26.15314528 1015.80124889 -26.1583125 1010.41062117 C-26.16764639 999.70867125 -26.17156186 989.00672546 -26.17383147 978.30477198 C-26.17679138 965.49069439 -26.18548741 952.6766223 -26.19424575 939.86254759 C-26.21509718 908.89240356 -26.22556348 877.92225864 -26.23437535 846.95210923 C-26.23730913 836.69836022 -26.24067899 826.44461142 -26.24434257 816.19086266 C-26.24460086 815.46753709 -26.24485915 814.74421152 -26.24512527 813.99896699 C-26.24617148 811.07268032 -26.24721991 808.14639364 -26.24827109 805.22010697 C-26.26623379 755.17126762 -26.2816141 705.12242794 -26.28903012 655.07358582 C-26.28961409 651.14267214 -26.29021136 647.21175846 -26.29080774 643.28084478 C-26.29092586 642.50107213 -26.29104398 641.72129949 -26.29116567 640.91789737 C-26.29236307 633.01762795 -26.29357183 625.11735854 -26.29479821 617.21708913 C-26.29504344 615.63305521 -26.2952873 614.04902128 -26.29552978 612.46498735 C-26.30332268 561.57095082 -26.32571434 510.67693733 -26.3582062 459.78291087 C-26.38154526 423.21317735 -26.4031002 386.64344841 -26.41021252 350.07370758 C-26.41035954 349.32198524 -26.41050656 348.5702629 -26.41065803 347.79576109 C-26.41384251 331.2954133 -26.41589364 314.79506554 -26.41688558 298.29471747 C-26.41730033 291.65611881 -26.41785523 285.01752016 -26.41844749 278.37892151 C-26.41850816 277.65236088 -26.41856883 276.92580024 -26.41863134 276.17722262 C-26.42064883 252.75564454 -26.43489807 229.33409362 -26.4553925 205.91252502 C-26.47652594 181.67483261 -26.48334014 157.43717915 -26.47351871 133.19947851 C-26.46828634 119.21675369 -26.47426289 105.23413679 -26.49605338 91.25142742 C-26.50949628 81.92349302 -26.50854249 72.59563344 -26.49565142 63.2676984 C-26.4887113 57.94497299 -26.48823248 52.62245485 -26.50521151 47.29974741 C-26.52051547 42.46300281 -26.51760142 37.62663379 -26.49980123 32.78990086 C-26.49663657 31.04580176 -26.5002591 29.30167464 -26.51129298 27.55760757 C-26.52526097 25.19705315 -26.51472199 22.83783665 -26.49794465 20.47732973 C-26.49834484 19.16812296 -26.49874502 17.8589162 -26.49915733 16.5100365 C-25.7027903 10.9100439 -22.67297021 7.19971795 -18.375 3.6875 C-17.78460938 3.19636719 -17.19421875 2.70523437 -16.5859375 2.19921875 C-11.83471407 -1.39345512 -5.67153632 -0.59037045 0 0 Z " fill="#030303" transform="translate(444,434)"></path>
<path d="M0 0 C5.38998756 2.3711767 9.16878198 6.05010222 11.640625 11.38671875 C13.02543689 21.73151982 10.48425608 32.1645918 8.453125 42.26171875 C8.12963904 43.91253576 7.80689222 45.56349776 7.48486328 47.21459961 C4.20239981 63.94657727 0.75226602 80.63321629 -3.57275391 97.13110352 C-4.7516865 101.68634308 -5.72891157 106.2445913 -6.609375 110.8671875 C-8.65308437 121.249439 -11.28177125 131.4875691 -13.86523438 141.74633789 C-14.72971457 145.180704 -15.58793356 148.6165894 -16.4453125 152.05273438 C-20.48373687 168.18548966 -24.83118947 184.20446225 -29.46484375 200.17578125 C-30.10085342 202.45875047 -30.69558592 204.7533943 -31.26171875 207.0546875 C-32.5932645 212.43996468 -34.17196887 217.75225981 -35.734375 223.07421875 C-36.04528076 224.13769531 -36.35618652 225.20117188 -36.67651367 226.296875 C-38.56918295 232.75276645 -40.49907898 239.1932073 -42.53515625 245.60546875 C-43.37337048 248.4339452 -44.08556299 251.28280044 -44.7902832 254.14697266 C-45.87024986 258.39734336 -47.09019222 262.60842779 -48.296875 266.82421875 C-48.54888672 267.71431641 -48.80089844 268.60441406 -49.06054688 269.52148438 C-51.17197694 276.91418964 -53.49175457 284.20250949 -56.234375 291.38671875 C-58.00256604 296.18513032 -59.45283704 301.0365282 -60.859375 305.94921875 C-62.423325 311.397551 -64.14883189 316.63787035 -66.3515625 321.8671875 C-67.53119136 324.81625964 -68.50560954 327.80236594 -69.484375 330.82421875 C-72.99940416 341.62109505 -77.05875717 352.22898808 -81.04077148 362.86010742 C-81.93593616 365.25422957 -82.82589896 367.65030188 -83.71118164 370.0480957 C-87.55008442 380.42103903 -91.64257548 390.6850588 -95.80053711 400.93383789 C-96.92695083 403.71173647 -98.04861122 406.49152259 -99.16992188 409.27148438 C-105.55286662 425.05729297 -105.55286662 425.05729297 -109.11352539 432.70825195 C-110.65499567 436.02227713 -112.14453369 439.35892355 -113.63671875 442.6953125 C-143.52166865 509.27057308 -182.56377667 594.32151988 -255.4296875 622.65625 C-285.42230843 633.5793423 -318.07710428 629.66174508 -346.625 616.46875 C-350.59824745 614.55429715 -354.4832275 612.48930002 -358.359375 610.38671875 C-359.02420898 610.03351562 -359.68904297 609.6803125 -360.37402344 609.31640625 C-386.25357385 595.54040814 -407.68934625 576.06695153 -428.359375 555.51171875 C-429.05345459 554.82239258 -429.74753418 554.13306641 -430.46264648 553.42285156 C-434.96396976 548.90685183 -439.21535522 544.23131057 -443.359375 539.38671875 C-443.85244141 538.8153418 -444.34550781 538.24396484 -444.85351562 537.65527344 C-447.85343095 534.17725943 -450.83482656 530.68333035 -453.81738281 527.19042969 C-455.28418072 525.47467559 -456.75511533 523.76254782 -458.2265625 522.05078125 C-464.53510754 514.68655676 -470.52345642 507.12933767 -476.359375 499.38671875 C-476.8352002 498.75862305 -477.31102539 498.13052734 -477.80126953 497.48339844 C-492.35643544 478.26925236 -506.09594445 458.5120859 -519.359375 438.38671875 C-519.90577637 437.55817383 -520.45217773 436.72962891 -521.01513672 435.87597656 C-535.75450301 413.48962787 -549.87332514 390.77628123 -563.43798828 367.65917969 C-565.25921683 364.5573058 -567.08785817 361.45992024 -568.91796875 358.36328125 C-578.04409401 342.87464832 -586.75099886 327.1666167 -595.359375 311.38671875 C-596.2558374 309.74461426 -596.2558374 309.74461426 -597.17041016 308.06933594 C-603.0301698 297.32342814 -608.83184526 286.54982375 -614.50390625 275.70361328 C-616.76658083 271.38501959 -619.05826848 267.08431301 -621.38671875 262.80078125 C-634.44993396 238.76532111 -647.14755971 214.48987548 -658.984375 189.82421875 C-659.41516357 188.92807861 -659.84595215 188.03193848 -660.28979492 187.10864258 C-664.01498557 179.23347927 -667.64980015 171.12785639 -664.671875 162.36328125 C-662.12861691 157.50989707 -658.25005806 153.83206028 -653.359375 151.38671875 C-645.78521348 150.73229403 -638.43317629 150.31310676 -632.359375 155.38671875 C-627.41606395 162.21106917 -623.88445294 170.08778235 -620.16550827 177.62412262 C-619.1659823 179.6492699 -618.16108332 181.67167652 -617.15493774 183.69354248 C-614.65333941 188.72315204 -612.1603556 193.7570179 -609.66760254 198.79101562 C-607.22328809 203.72634221 -604.77518628 208.65976006 -602.3203125 213.58984375 C-601.97891991 214.27550415 -601.63752731 214.96116455 -601.28578949 215.66760254 C-595.65732057 226.95370322 -589.75640361 238.06522275 -583.62350464 249.08633423 C-581.47843923 252.98979089 -579.41925305 256.9378435 -577.359375 260.88671875 C-572.37831003 270.39622698 -567.2567909 279.82520196 -562.08984375 289.23486328 C-560.86722777 291.46172167 -559.64578439 293.68919216 -558.42578125 295.91748047 C-547.31876806 316.19908572 -535.76887769 336.13482913 -523.74072266 355.88427734 C-520.03331959 361.97253945 -516.34601691 368.07137393 -512.70751953 374.20117188 C-500.96627895 393.95279155 -488.36490817 413.07840507 -475.13134766 431.85791016 C-473.07687818 434.78987417 -471.05857487 437.7449114 -469.046875 440.70629883 C-455.49341531 460.64067491 -440.81159694 479.88796637 -425.359375 498.38671875 C-424.94123535 498.88977539 -424.5230957 499.39283203 -424.09228516 499.91113281 C-418.22622198 506.96068119 -412.2085374 513.83380538 -405.96875 520.5546875 C-403.59599889 523.1299039 -401.28854984 525.75037272 -398.984375 528.38671875 C-393.50254898 534.48305552 -387.48283775 539.94821109 -381.359375 545.38671875 C-380.83859375 545.85223145 -380.3178125 546.31774414 -379.78125 546.79736328 C-362.88398034 561.8118248 -343.10627014 576.53709789 -321.359375 583.38671875 C-320.21082031 583.77730469 -319.06226563 584.16789063 -317.87890625 584.5703125 C-297.95947531 590.53582083 -276.15489503 589.32209761 -257.71850586 579.58032227 C-251.07478473 575.85987455 -245.09566811 571.3810038 -239.359375 566.38671875 C-238.55113281 565.69964844 -237.74289062 565.01257813 -236.91015625 564.3046875 C-205.42166274 536.86965783 -184.34405116 497.55863543 -166.35058594 460.39990234 C-165.22654738 458.11694127 -164.06460525 455.85547595 -162.8984375 453.59375 C-152.16891085 432.68347663 -142.98707924 411.02863976 -134.43847656 389.14404297 C-133.1567675 385.86901534 -131.86355048 382.59861689 -130.5703125 379.328125 C-129.82730521 377.44636663 -129.08469247 375.56445331 -128.34234619 373.68243408 C-127.6333501 371.88499999 -126.9238614 370.08776024 -126.21435547 368.29052734 C-123.88219293 362.35681886 -121.60739997 356.41041088 -119.45019531 350.41088867 C-118.39585125 347.48784483 -117.32368957 344.57169445 -116.24833679 341.65632629 C-109.02553639 322.04007068 -102.269431 302.30393305 -95.921875 282.38671875 C-95.42935242 280.84236649 -95.42935242 280.84236649 -94.92687988 279.26681519 C-88.97971545 260.58294997 -83.17227655 241.85077527 -77.734375 223.01171875 C-77.15132554 220.99861568 -76.56799089 218.98559518 -75.984375 216.97265625 C-75.57058594 215.54518066 -75.57058594 215.54518066 -75.1484375 214.08886719 C-74.43802057 211.65604089 -73.71549411 209.2274516 -72.984375 206.80078125 C-70.50813403 198.56754124 -68.26862627 190.3044512 -66.23388672 181.95019531 C-64.89419399 176.45502773 -63.46250252 170.98856218 -61.99812317 165.52529907 C-59.78010724 157.24124165 -57.62383295 148.94137713 -55.484375 140.63671875 C-55.26627167 139.79065063 -55.04816833 138.94458252 -54.82345581 138.07287598 C-51.74035844 126.08444687 -48.82608415 114.08194491 -46.24853516 101.97363281 C-46.03890137 100.99104492 -45.82926758 100.00845703 -45.61328125 98.99609375 C-45.44127197 98.17077148 -45.2692627 97.34544922 -45.09204102 96.49511719 C-44.43660528 93.71437483 -43.69590301 90.98027008 -42.92724609 88.22924805 C-41.38616686 82.62587489 -40.16031843 76.9934613 -39.01953125 71.296875 C-38.81130234 70.27226669 -38.60307343 69.24765839 -38.38853455 68.19200134 C-37.72954453 64.94509218 -37.0756374 61.69718404 -36.421875 58.44921875 C-35.98796143 56.30787556 -35.55371888 54.16659901 -35.11914062 52.02539062 C-34.90615326 50.97346527 -34.69316589 49.92153992 -34.47372437 48.83773804 C-34.04730408 46.73394701 -33.61943651 44.6304488 -33.19009399 42.5272522 C-32.1834898 37.57426496 -31.21077726 32.62064039 -30.32763672 27.64404297 C-30.16267197 26.74326523 -29.99770721 25.84248749 -29.82774353 24.91441345 C-29.52544937 23.25397847 -29.23608164 21.59110562 -28.96339417 19.92555237 C-27.3857218 11.39625578 -23.30085577 5.47713798 -16.359375 0.38671875 C-11.67908616 -1.95342567 -4.95297926 -1.2874466 0 0 Z " fill="#030303" transform="translate(1358.359375,417.61328125)"></path>
<path d="M0 0 C6.24587506 2.47298607 10.6580909 6.30055679 13.68359375 12.3515625 C13.88541474 14.3870713 13.99692489 16.43200271 14.05859375 18.4765625 C14.10757813 19.57226562 14.1565625 20.66796875 14.20703125 21.796875 C13.05263245 29.63644892 7.03207195 35.59706574 2.05859375 41.4765625 C-2.4304248 46.84675222 -6.84584231 52.253187 -11.12890625 57.7890625 C-14.93730718 62.69354988 -18.92710347 67.3488224 -23.1328125 71.921875 C-26.26568808 75.40782958 -29.18507126 79.05668928 -32.1328125 82.69921875 C-34.76939805 85.90179761 -37.52866371 88.9771528 -40.3046875 92.05859375 C-42.44495047 94.49807795 -44.47441748 97.00682242 -46.50390625 99.5390625 C-51.18877087 105.32003929 -56.2322571 110.71804527 -61.3203125 116.140625 C-64.10304979 119.1092207 -66.78815471 122.14922592 -69.4453125 125.23046875 C-72.49693457 128.68982321 -75.64607784 132.05957468 -78.79125977 135.43383789 C-81.49580856 138.34424118 -84.14764344 141.290115 -86.75390625 144.2890625 C-90.18626706 148.22950304 -93.72911666 152.05229012 -97.31640625 155.8515625 C-98.63552806 157.25249928 -99.95453514 158.65354411 -101.2734375 160.0546875 C-101.94197754 160.76431641 -102.61051758 161.47394531 -103.29931641 162.20507812 C-105.27327559 164.30566505 -107.23953294 166.41316029 -109.203125 168.5234375 C-117.55538859 177.49150177 -126.09357474 186.21610304 -134.8203125 194.8203125 C-137.00476093 197.03552781 -139.1196967 199.29722298 -141.20996094 201.60107422 C-146.52105184 207.45131579 -151.98721743 213.1316963 -157.56640625 218.7265625 C-158.21520752 219.37987549 -158.86400879 220.03318848 -159.5324707 220.70629883 C-163.39033365 224.55241641 -167.37254472 228.18867878 -171.49511719 231.74853516 C-173.87883667 233.84659174 -176.10164703 236.07694492 -178.31640625 238.3515625 C-181.85872824 241.93714949 -185.49196286 245.30047912 -189.3203125 248.57421875 C-191.57773251 250.58425027 -193.69376338 252.69989203 -195.81640625 254.8515625 C-199.10156268 258.17582793 -202.47421313 261.2979608 -206.01953125 264.33984375 C-209.00465957 266.9543694 -211.9081666 269.65211954 -214.81640625 272.3515625 C-219.58270389 276.76640314 -224.37855895 281.12816564 -229.31640625 285.3515625 C-230.26773438 286.17011719 -231.2190625 286.98867187 -232.19921875 287.83203125 C-238.28721908 293.04443719 -244.47269376 298.09770404 -250.80322266 303.01245117 C-254.81239193 306.13625764 -258.73907412 309.34575913 -262.64208984 312.60107422 C-270.08677581 318.8086015 -277.67337211 324.61580258 -285.62451172 330.15380859 C-287.29411499 331.33578171 -288.93519885 332.54818935 -290.5703125 333.77734375 C-303.10228042 343.19174421 -316.21493415 351.75898649 -329.31640625 360.3515625 C-330.18845703 360.92583984 -331.06050781 361.50011719 -331.95898438 362.09179688 C-394.98770734 403.43656412 -475.28545916 438.46496784 -552.31640625 425.3515625 C-553.69880092 425.15203132 -555.08163777 424.95554582 -556.46484375 424.76171875 C-610.88014233 416.84366545 -661.06681818 387.69821326 -703.52978516 353.7734375 C-705.32485484 352.34483873 -707.13586195 350.93928886 -708.953125 349.5390625 C-720.07852874 340.94312521 -730.70159919 331.79313612 -741.109375 322.34375 C-743.05266626 320.58962869 -745.02000073 318.87183556 -747.00390625 317.1640625 C-756.12483948 309.21105365 -764.91884339 300.85694946 -773.40234375 292.23046875 C-775.18418154 290.48135859 -777.01732046 288.87834041 -778.94140625 287.2890625 C-782.24379793 284.54471386 -784.92541772 281.42317121 -787.69921875 278.15625 C-789.3571306 276.20647633 -789.3571306 276.20647633 -791.81640625 274.3515625 C-794.00402397 272.60146832 -795.57766974 270.96964302 -797.37890625 268.8515625 C-800.52337052 265.16352563 -803.86926627 261.75188947 -807.31640625 258.3515625 C-811.19707072 254.51369947 -814.93453255 250.63346807 -818.4765625 246.4765625 C-820.8666755 243.71600735 -823.3412956 241.03559758 -825.81640625 238.3515625 C-829.46157965 234.39254182 -833.05901721 230.40027366 -836.58203125 226.33203125 C-838.58905163 224.04023095 -840.64043476 221.79159498 -842.69140625 219.5390625 C-846.54224153 215.27332241 -850.18374449 210.87362328 -853.796875 206.40625 C-856.76213152 202.8111638 -859.81421573 199.29933481 -862.87890625 195.7890625 C-867.08747257 190.9603876 -871.20739889 186.09139184 -875.171875 181.05859375 C-877.40353973 178.24157433 -879.66916415 175.45466001 -881.94116211 172.67016602 C-888.49528716 164.63702534 -894.94491834 156.53004616 -901.31640625 148.3515625 C-901.86973633 147.64209473 -902.42306641 146.93262695 -902.99316406 146.20166016 C-909.972259 137.25138517 -916.93960936 128.29207407 -923.83789062 119.27929688 C-924.94657692 117.83375741 -926.05765317 116.39005043 -927.16992188 114.94726562 C-952.08773284 82.62339388 -952.08773284 82.62339388 -950.31640625 68.3515625 C-947.80179981 62.800286 -943.55166916 59.2600419 -938.31640625 56.3515625 C-933.12359461 54.62062529 -928.80322511 54.86450115 -923.69140625 56.5390625 C-916.92190002 60.17453807 -913.0260944 64.72144412 -908.81640625 70.9765625 C-907.76345169 72.50249933 -906.70869394 74.02719312 -905.65234375 75.55078125 C-905.10674805 76.3401709 -904.56115234 77.12956055 -903.99902344 77.94287109 C-894.57879306 91.4280703 -884.48001596 104.42357341 -874.31640625 117.3515625 C-873.33711312 118.60016124 -872.35794028 119.84885433 -871.37890625 121.09765625 C-869.57263007 123.40027013 -867.76389082 125.70091539 -865.953125 128 C-864.1801345 130.2515207 -862.4122787 132.50693014 -860.6484375 134.765625 C-850.33113971 147.96668596 -839.77643176 160.94549506 -828.81347656 173.61621094 C-827.27433564 175.40032928 -825.74346609 177.1912387 -824.21484375 178.984375 C-819.08892127 184.99505238 -813.9130014 190.94020243 -808.59765625 196.78515625 C-805.91965225 199.79791076 -803.33811425 202.88347111 -800.75390625 205.9765625 C-797.06887312 210.37899627 -793.26611949 214.53127766 -789.140625 218.53125 C-787.28787683 220.38003083 -785.58163989 222.30189052 -783.87890625 224.2890625 C-780.67560767 228.01773123 -777.24980119 231.46095547 -773.72265625 234.8828125 C-771.84708158 236.80710339 -770.11414497 238.74334016 -768.375 240.78515625 C-763.42220151 246.49051418 -758.04107366 251.77610811 -752.69213867 257.10620117 C-750.88279692 258.91018335 -749.07886306 260.71944915 -747.27539062 262.52929688 C-741.94504026 267.8623999 -736.61486761 273.12283441 -730.87084961 278.01538086 C-728.91438446 279.69713581 -727.10780337 281.49618691 -725.31640625 283.3515625 C-722.14187921 286.5693224 -718.8544391 289.57593546 -715.42578125 292.51953125 C-713.14011079 294.50467837 -710.91939247 296.5519608 -708.69140625 298.6015625 C-703.65308345 303.14759116 -698.37173957 307.31468003 -693.01171875 311.46875 C-690.54452633 313.38274856 -688.1041473 315.32423453 -685.68359375 317.296875 C-667.18408935 332.36488045 -647.3859206 345.84927234 -626.3984375 357.21582031 C-624.25551624 358.38477783 -622.13009913 359.58217611 -620.00390625 360.78125 C-569.35700867 388.88728406 -514.55883458 393.45953828 -459.19042969 378.17724609 C-444.7198747 374.01997316 -430.56302922 369.07927842 -416.96435547 362.609375 C-415.01684015 361.68427829 -413.06463365 360.76904125 -411.10986328 359.859375 C-393.96183738 351.87844269 -377.4682687 343.23062308 -361.31640625 333.3515625 C-360.30175293 332.73635742 -359.28709961 332.12115234 -358.24169922 331.48730469 C-345.55639947 323.78033423 -333.25138802 315.73314493 -321.34960938 306.86279297 C-319.35287047 305.37866547 -317.34503671 303.91118637 -315.33203125 302.44921875 C-302.28676632 292.96924219 -289.63038953 283.0683724 -277.15429688 272.85302734 C-275.50985062 271.50959689 -273.85886673 270.17417819 -272.20703125 268.83984375 C-266.92945932 264.5685885 -261.83976204 260.15343252 -256.82421875 255.578125 C-254.34050089 253.37295493 -251.7884592 251.29645246 -249.19140625 249.2265625 C-243.58788826 244.69911127 -238.36699692 239.80806157 -233.14990234 234.84326172 C-229.85936194 231.7151353 -226.53922531 228.64734002 -223.109375 225.671875 C-220.22425712 223.16860579 -217.47779773 220.59484295 -214.81640625 217.8515625 C-212.31539063 215.27359256 -209.75493517 212.86417278 -207.01586914 210.54663086 C-200.60143436 204.94836303 -194.66786264 198.84675608 -188.65625 192.82421875 C-187.33938412 191.5080279 -186.02236995 190.1919854 -184.70521545 188.87608337 C-181.95606551 186.12840106 -179.20871506 183.3789356 -176.46264648 180.62817383 C-172.96050622 177.12033687 -169.45389474 173.61700943 -165.94591427 170.11501408 C-163.2287577 167.40148844 -160.51400882 164.68556405 -157.79995918 161.9689312 C-156.5086338 160.67694354 -155.21657853 159.38568495 -153.92374992 158.09520149 C-145.05545272 149.27596818 -145.05545272 149.27596818 -136.71388245 139.96311951 C-135.15973681 138.1708927 -133.50971519 136.51219401 -131.81640625 134.8515625 C-128.84664604 131.92769262 -126.11134246 128.86574696 -123.390625 125.7109375 C-120.79010922 122.75291202 -118.11890787 119.86481859 -115.44140625 116.9765625 C-107.71839583 108.63332576 -100.14616669 100.18743714 -92.76879883 91.53686523 C-89.02090209 87.15003392 -85.19440145 82.84245792 -81.3203125 78.56640625 C-72.09938403 68.37485373 -63.29169136 57.8131675 -54.62109375 47.15234375 C-52.0960738 44.08380256 -49.52148292 41.06123096 -46.94140625 38.0390625 C-43.12225635 33.55849558 -39.43137077 28.99817733 -35.81640625 24.3515625 C-32.10845175 19.60890708 -28.38705397 14.87916818 -24.56640625 10.2265625 C-24.14294922 9.69417969 -23.71949219 9.16179688 -23.28320312 8.61328125 C-17.32299973 1.44629788 -9.25892831 -2.59187538 0 0 Z " fill="#030303" transform="translate(1592.31640625,869.6484375)"></path>
<path d="M0 0 C0.65370746 -0.00127809 1.30741493 -0.00255617 1.98093171 -0.00387299 C4.1850409 -0.00695073 6.38907927 -0.00286436 8.59318614 0.00115067 C10.19071811 0.00041135 11.78824993 -0.00076688 13.38578129 -0.00234583 C17.80274735 -0.00542633 22.21969055 -0.00223024 26.63665492 0.0019323 C31.43166659 0.00535653 36.22667586 0.00299761 41.02168798 0.00135481 C49.43440374 -0.0007227 57.84711244 0.00093127 66.25982738 0.00499302 C78.7693233 0.01101601 91.27881476 0.01132995 103.78831187 0.01045103 C124.82897021 0.00913557 145.86962542 0.01248448 166.91028285 0.01846844 C187.7508134 0.02438033 208.59134265 0.02823335 229.43187404 0.02932125 C230.72644697 0.02938999 232.0210199 0.02945873 233.35482232 0.02952956 C239.92898843 0.02986788 246.50315455 0.03016926 253.07732067 0.03045643 C266.44694582 0.03105951 279.81657096 0.03198798 293.18619609 0.0330587 C294.18962949 0.03313868 294.18962949 0.03313868 295.21333427 0.03322027 C327.76355002 0.03584254 360.31376492 0.04215041 392.86398005 0.04875904 C404.16130264 0.05105068 415.45862523 0.05332603 426.75594783 0.05553395 C427.45659762 0.05567089 428.15724741 0.05580784 428.87912901 0.05594894 C461.44339008 0.06229164 494.00765129 0.06601817 526.57191282 0.06906874 C528.68570268 0.0692668 530.79949254 0.069466 532.9132824 0.06966542 C546.92133944 0.07098519 560.92939649 0.07225984 574.93745355 0.07350428 C603.4748724 0.07603988 632.01229123 0.07886192 660.54971004 0.08185536 C661.86188753 0.08199265 663.17406502 0.08212994 664.52600547 0.08227139 C752.18879459 0.09147599 839.85158275 0.10732165 927.51437068 0.1241985 C927.51437068 0.7841985 927.51437068 1.4441985 927.51437068 2.1241985 C926.71914803 2.12491064 925.92392537 2.12562278 925.10460506 2.12635651 C838.54382858 2.20390913 751.98305324 2.28268426 665.42228389 2.3678661 C663.48335323 2.36977362 663.48335323 2.36977362 661.50525226 2.37171968 C634.09852725 2.39868959 606.69180243 2.42585747 579.28507785 2.45326323 C565.5176987 2.46702991 551.75031952 2.48075748 537.98294029 2.49444807 C535.90618777 2.49651346 533.82943524 2.49857998 531.75268272 2.50064654 C499.77499219 2.53245744 467.79730112 2.5634298 435.8196075 2.59197193 C434.78834518 2.59289243 434.78834518 2.59289243 433.73624928 2.59383151 C422.65163649 2.6037204 411.56702363 2.6135389 400.48241077 2.62334804 C354.12283513 2.66437476 307.76326399 2.70855527 261.40369541 2.75701961 C254.95616452 2.76375835 248.50863359 2.77046007 242.06110263 2.77713925 C240.79211214 2.77845497 239.52312165 2.7797707 238.21567691 2.7811263 C217.7726804 2.80222693 197.32968229 2.81991116 176.88668154 2.83632381 C156.34412248 2.85288907 135.80156943 2.87303926 115.25901749 2.89686691 C103.0481789 2.91092103 90.83734499 2.92220835 78.6265005 2.92956287 C70.47305289 2.93474428 62.31961422 2.94350334 54.16617335 2.95518623 C49.51831791 2.96174319 44.87047532 2.96673059 40.22261497 2.96736049 C35.99235633 2.96796442 31.76212858 2.97313773 27.53187924 2.98191912 C26.01288061 2.98427811 24.49387828 2.98498875 22.97487827 2.98382499 C15.51544277 2.97899024 8.13338077 3.10054772 0.70889907 3.9007867 C-2.09174669 4.18590368 -4.85971133 4.22323639 -7.67312932 4.1866985 C-8.59480901 4.17767506 -9.5164887 4.16865162 -10.46609807 4.15935475 C-11.13254338 4.14775318 -11.7989887 4.13615162 -12.48562932 4.1241985 C-10.48562932 1.1241985 -10.48562932 1.1241985 -8.76598115 0.4444609 C-5.82227432 0.03103407 -2.97392172 -0.00039822 0 0 Z " fill="#E4E4E4" transform="translate(518.4856293201447,309.8758015036583)"></path>
</svg><style>@media (prefers-color-scheme: light) { :root { filter: none; } }
@media (prefers-color-scheme: dark) { :root { filter: invert(100%); } }
</style></svg>